# MagicaVoxel @ ephtracy

# material
mtllib carroAmarelo.mtl
usemtl palette

# normals
vn -1 0 0
vn 1 0 0
vn 0 0 1
vn 0 0 -1
vn 0 -1 0
vn 0 1 0

# texcoords
vt 0.00195313 0.5
vt 0.0175781 0.5
vt 0.841797 0.5
vt 0.962891 0.5
vt 0.974609 0.5
vt 0.990234 0.5
vt 0.994141 0.5

# verts
v -17 2 4
v -17 2 3
v -17 3 4
v -17 3 3
v -17 5 5
v -17 5 3
v -17 5 -3
v -17 5 -5
v -17 7 5
v -17 7 3
v -17 7 -3
v -17 7 -5
v -16 3 7
v -16 3 4
v -16 3 3
v -16 3 -7
v -16 5 5
v -16 5 3
v -16 5 -3
v -16 5 -5
v -16 7 5
v -16 7 3
v -16 7 -3
v -16 7 -5
v -16 8 7
v -16 8 -7
v -12 8 6
v -12 8 5
v -12 8 -5
v -12 8 -6
v -12 12 5
v -12 12 -5
v -12 13 6
v -12 13 -6
v -11 0 8
v -11 0 6
v -11 0 -6
v -11 0 -8
v -11 3 6
v -11 3 -6
v -11 5 8
v -11 5 6
v -11 5 -6
v -11 5 -8
v -11 8 5
v -11 8 -5
v -11 12 5
v -11 12 -5
v -9 2 6
v -9 2 -6
v -9 3 6
v -9 3 -6
v -5 3 7
v -5 3 6
v -5 3 -6
v -5 3 -7
v -5 6 7
v -5 6 6
v -5 6 -6
v -5 6 -7
v -5 8 6
v -5 8 5
v -5 8 -5
v -5 8 -6
v -5 12 6
v -5 12 5
v -5 12 -5
v -5 12 -6
v 6 0 8
v 6 0 6
v 6 0 -6
v 6 0 -8
v 6 3 6
v 6 3 -6
v 6 5 8
v 6 5 6
v 6 5 -6
v 6 5 -8
v 6 8 7
v 6 8 6
v 6 8 -6
v 6 8 -7
v 6 9 9
v 6 9 7
v 6 9 6
v 6 9 -6
v 6 9 -7
v 6 9 -9
v 6 10 9
v 6 10 7
v 6 10 -7
v 6 10 -9
v 7 8 6
v 7 8 5
v 7 8 -5
v 7 8 -6
v 7 9 6
v 7 9 -6
v 7 12 6
v 7 12 5
v 7 12 -5
v 7 12 -6
v 8 2 6
v 8 2 -6
v 8 3 6
v 8 3 -6
v 12 3 7
v 12 3 6
v 12 3 -6
v 12 3 -7
v 12 6 7
v 12 6 6
v 12 6 -6
v 12 6 -7
v 16 2 2
v 16 2 -2
v 16 3 2
v 16 3 -2
v -13 2 4
v -13 2 3
v -13 3 4
v -13 3 3
v -12 3 7
v -12 3 6
v -12 3 -6
v -12 3 -7
v -12 6 7
v -12 6 6
v -12 6 -6
v -12 6 -7
v -11 8 6
v -11 8 5
v -11 8 -5
v -11 8 -6
v -11 12 6
v -11 12 5
v -11 12 -5
v -11 12 -6
v -8 2 6
v -8 2 -6
v -8 3 6
v -8 3 -6
v -6 0 8
v -6 0 6
v -6 0 -6
v -6 0 -8
v -6 3 6
v -6 3 -6
v -6 5 8
v -6 5 6
v -6 5 -6
v -6 5 -8
v -3 8 6
v -3 8 5
v -3 8 -5
v -3 8 -6
v -3 12 6
v -3 12 5
v -3 12 -5
v -3 12 -6
v 5 3 7
v 5 3 6
v 5 3 -6
v 5 3 -7
v 5 6 7
v 5 6 6
v 5 6 -6
v 5 6 -7
v 7 8 7
v 7 8 6
v 7 8 5
v 7 8 -5
v 7 8 -6
v 7 8 -7
v 7 9 9
v 7 9 7
v 7 9 6
v 7 9 -6
v 7 9 -7
v 7 9 -9
v 7 10 9
v 7 10 7
v 7 10 -7
v 7 10 -9
v 7 12 5
v 7 12 -5
v 8 8 6
v 8 8 5
v 8 8 -5
v 8 8 -6
v 8 12 5
v 8 12 -5
v 8 13 6
v 8 13 -6
v 9 2 6
v 9 2 -6
v 9 3 6
v 9 3 -6
v 11 0 8
v 11 0 6
v 11 0 -6
v 11 0 -8
v 11 3 6
v 11 3 -6
v 11 5 8
v 11 5 6
v 11 5 -6
v 11 5 -8
v 16 5 6
v 16 5 2
v 16 5 -2
v 16 5 -6
v 16 7 6
v 16 7 2
v 16 7 -2
v 16 7 -6
v 17 2 2
v 17 2 -2
v 17 3 7
v 17 3 2
v 17 3 -2
v 17 3 -7
v 17 4 2
v 17 4 -2
v 17 5 6
v 17 5 2
v 17 5 -2
v 17 5 -6
v 17 7 6
v 17 7 2
v 17 7 -2
v 17 7 -6
v 17 8 7
v 17 8 -7
v 6 9 9
v 6 10 9
v 7 9 9
v 7 10 9
v -11 0 8
v -11 5 8
v -9 2 8
v -9 3 8
v -8 2 8
v -8 3 8
v -6 0 8
v -6 5 8
v 6 0 8
v 6 5 8
v 8 2 8
v 8 3 8
v 9 2 8
v 9 3 8
v 11 0 8
v 11 5 8
v -16 3 7
v -16 8 7
v -12 3 7
v -12 6 7
v -5 3 7
v -5 6 7
v -3 6 7
v -3 7 7
v -1 6 7
v -1 7 7
v 5 3 7
v 5 6 7
v 6 8 7
v 6 9 7
v 7 8 7
v 7 9 7
v 12 3 7
v 12 6 7
v 17 3 7
v 17 8 7
v -12 3 6
v -12 6 6
v -12 8 6
v -12 13 6
v -11 3 6
v -11 5 6
v -11 8 6
v -11 12 6
v -6 3 6
v -6 5 6
v -5 3 6
v -5 6 6
v -5 8 6
v -5 12 6
v -3 8 6
v -3 12 6
v 5 3 6
v 5 6 6
v 6 3 6
v 6 5 6
v 7 8 6
v 7 9 6
v 7 12 6
v 8 8 6
v 8 13 6
v 11 3 6
v 11 5 6
v 12 3 6
v 12 6 6
v -17 5 5
v -17 7 5
v -16 5 5
v -16 7 5
v -11 8 5
v -11 12 5
v -5 8 5
v -5 12 5
v -3 8 5
v -3 12 5
v 7 8 5
v 7 12 5
v -17 2 4
v -17 3 4
v -16 3 4
v -13 2 4
v -13 3 4
v 16 2 2
v 16 3 2
v 16 5 2
v 16 7 2
v 17 2 2
v 17 3 2
v 17 5 2
v 17 7 2
v -17 5 -3
v -17 7 -3
v -16 5 -3
v -16 7 -3
v -12 8 -5
v -12 12 -5
v -11 8 -5
v -11 12 -5
v 7 8 -5
v 7 12 -5
v 8 8 -5
v 8 12 -5
v -11 0 -6
v -11 3 -6
v -9 2 -6
v -9 3 -6
v -8 2 -6
v -8 3 -6
v -6 0 -6
v -6 3 -6
v 6 0 -6
v 6 3 -6
v 6 8 -6
v 6 9 -6
v 7 8 -6
v 7 9 -6
v 8 2 -6
v 8 3 -6
v 9 2 -6
v 9 3 -6
v 11 0 -6
v 11 3 -6
v 16 5 -6
v 16 7 -6
v 17 5 -6
v 17 7 -6
v 6 9 -7
v 6 10 -7
v 7 9 -7
v 7 10 -7
v 6 9 7
v 6 10 7
v 7 9 7
v 7 10 7
v -11 0 6
v -11 3 6
v -9 2 6
v -9 3 6
v -8 2 6
v -8 3 6
v -6 0 6
v -6 3 6
v 6 0 6
v 6 3 6
v 6 8 6
v 6 9 6
v 7 8 6
v 7 9 6
v 8 2 6
v 8 3 6
v 9 2 6
v 9 3 6
v 11 0 6
v 11 3 6
v 16 5 6
v 16 7 6
v 17 5 6
v 17 7 6
v -12 8 5
v -12 12 5
v -11 8 5
v -11 12 5
v 7 8 5
v 7 12 5
v 8 8 5
v 8 12 5
v -17 2 3
v -17 3 3
v -17 5 3
v -17 7 3
v -16 3 3
v -16 5 3
v -16 7 3
v -13 2 3
v -13 3 3
v 16 2 -2
v 16 3 -2
v 16 5 -2
v 16 7 -2
v 17 2 -2
v 17 3 -2
v 17 5 -2
v 17 7 -2
v -17 5 -5
v -17 7 -5
v -16 5 -5
v -16 7 -5
v -11 8 -5
v -11 12 -5
v -5 8 -5
v -5 12 -5
v -3 8 -5
v -3 12 -5
v 7 8 -5
v 7 12 -5
v -12 3 -6
v -12 6 -6
v -12 8 -6
v -12 13 -6
v -11 3 -6
v -11 5 -6
v -11 8 -6
v -11 12 -6
v -6 3 -6
v -6 5 -6
v -5 3 -6
v -5 6 -6
v -5 8 -6
v -5 12 -6
v -3 8 -6
v -3 12 -6
v 5 3 -6
v 5 6 -6
v 6 3 -6
v 6 5 -6
v 7 8 -6
v 7 9 -6
v 7 12 -6
v 8 8 -6
v 8 13 -6
v 11 3 -6
v 11 5 -6
v 12 3 -6
v 12 6 -6
v -16 3 -7
v -16 8 -7
v -12 3 -7
v -12 6 -7
v -5 3 -7
v -5 6 -7
v -3 6 -7
v -3 7 -7
v -1 6 -7
v -1 7 -7
v 5 3 -7
v 5 6 -7
v 6 8 -7
v 6 9 -7
v 7 8 -7
v 7 9 -7
v 12 3 -7
v 12 6 -7
v 17 3 -7
v 17 8 -7
v -11 0 -8
v -11 5 -8
v -9 2 -8
v -9 3 -8
v -8 2 -8
v -8 3 -8
v -6 0 -8
v -6 5 -8
v 6 0 -8
v 6 5 -8
v 8 2 -8
v 8 3 -8
v 9 2 -8
v 9 3 -8
v 11 0 -8
v 11 5 -8
v 6 9 -9
v 6 10 -9
v 7 9 -9
v 7 10 -9
v -11 0 8
v -6 0 8
v 6 0 8
v 11 0 8
v -11 0 6
v -6 0 6
v 6 0 6
v 11 0 6
v -11 0 -6
v -6 0 -6
v 6 0 -6
v 11 0 -6
v -11 0 -8
v -6 0 -8
v 6 0 -8
v 11 0 -8
v -9 2 6
v -8 2 6
v 8 2 6
v 9 2 6
v -17 2 4
v -13 2 4
v -17 2 3
v -13 2 3
v 16 2 2
v 17 2 2
v 16 2 -2
v 17 2 -2
v -9 2 -6
v -8 2 -6
v 8 2 -6
v 9 2 -6
v -16 3 7
v -12 3 7
v -5 3 7
v 5 3 7
v 12 3 7
v 17 3 7
v -12 3 6
v -11 3 6
v -9 3 6
v -8 3 6
v -6 3 6
v -5 3 6
v 5 3 6
v 6 3 6
v 8 3 6
v 9 3 6
v 11 3 6
v 12 3 6
v -16 3 4
v -13 3 4
v -16 3 3
v -13 3 3
v 16 3 2
v 17 3 2
v 16 3 -2
v 17 3 -2
v -12 3 -6
v -11 3 -6
v -9 3 -6
v -8 3 -6
v -6 3 -6
v -5 3 -6
v 5 3 -6
v 6 3 -6
v 8 3 -6
v 9 3 -6
v 11 3 -6
v 12 3 -6
v -16 3 -7
v -12 3 -7
v -5 3 -7
v 5 3 -7
v 12 3 -7
v 17 3 -7
v -17 5 5
v -16 5 5
v -17 5 3
v -16 5 3
v -17 5 -3
v -16 5 -3
v -17 5 -5
v -16 5 -5
v -12 6 7
v -5 6 7
v 5 6 7
v 12 6 7
v -12 6 6
v -5 6 6
v 5 6 6
v 12 6 6
v -12 6 -6
v -5 6 -6
v 5 6 -6
v 12 6 -6
v -12 6 -7
v -5 6 -7
v 5 6 -7
v 12 6 -7
v 16 7 6
v 17 7 6
v 16 7 2
v 17 7 2
v 16 7 -2
v 17 7 -2
v 16 7 -6
v 17 7 -6
v 6 9 9
v 7 9 9
v 6 9 7
v 7 9 7
v 6 9 -7
v 7 9 -7
v 6 9 -9
v 7 9 -9
v -11 12 6
v -5 12 6
v -3 12 6
v 7 12 6
v -12 12 5
v -11 12 5
v -5 12 5
v -3 12 5
v 7 12 5
v 8 12 5
v -12 12 -5
v -11 12 -5
v -5 12 -5
v -3 12 -5
v 7 12 -5
v 8 12 -5
v -11 12 -6
v -5 12 -6
v -3 12 -6
v 7 12 -6
v -17 3 4
v -16 3 4
v -17 3 3
v -16 3 3
v -11 5 8
v -6 5 8
v 6 5 8
v 11 5 8
v -11 5 6
v -6 5 6
v 6 5 6
v 11 5 6
v 16 5 6
v 17 5 6
v 16 5 2
v 17 5 2
v 16 5 -2
v 17 5 -2
v -11 5 -6
v -6 5 -6
v 6 5 -6
v 11 5 -6
v 16 5 -6
v 17 5 -6
v -11 5 -8
v -6 5 -8
v 6 5 -8
v 11 5 -8
v -17 7 5
v -16 7 5
v -17 7 3
v -16 7 3
v -17 7 -3
v -16 7 -3
v -17 7 -5
v -16 7 -5
v -16 8 7
v 6 8 7
v 7 8 7
v 17 8 7
v -12 8 6
v -11 8 6
v -5 8 6
v -3 8 6
v 6 8 6
v 7 8 6
v 8 8 6
v -12 8 5
v -11 8 5
v -5 8 5
v -3 8 5
v 7 8 5
v 8 8 5
v -12 8 -5
v -11 8 -5
v -5 8 -5
v -3 8 -5
v 7 8 -5
v 8 8 -5
v -12 8 -6
v -11 8 -6
v -5 8 -6
v -3 8 -6
v 6 8 -6
v 7 8 -6
v 8 8 -6
v -16 8 -7
v 6 8 -7
v 7 8 -7
v 17 8 -7
v 6 9 7
v 7 9 7
v 6 9 6
v 7 9 6
v 6 9 -6
v 7 9 -6
v 6 9 -7
v 7 9 -7
v 6 10 9
v 7 10 9
v 6 10 7
v 7 10 7
v 6 10 -7
v 7 10 -7
v 6 10 -9
v 7 10 -9
v -12 13 6
v 8 13 6
v -12 13 -6
v 8 13 -6

# faces
f 3/5/1 2/5/1 1/5/1
f 4/5/1 2/5/1 3/5/1
f 9/3/1 6/3/1 5/3/1
f 10/3/1 6/3/1 9/3/1
f 11/3/1 8/3/1 7/3/1
f 12/3/1 8/3/1 11/3/1
f 17/2/1 14/2/1 13/2/1
f 17/2/1 16/2/1 15/2/1
f 17/2/1 15/2/1 14/2/1
f 18/2/1 16/2/1 17/2/1
f 19/2/1 16/2/1 18/2/1
f 20/2/1 16/2/1 19/2/1
f 21/2/1 17/2/1 13/2/1
f 22/2/1 19/2/1 18/2/1
f 23/2/1 19/2/1 22/2/1
f 24/2/1 16/2/1 20/2/1
f 25/2/1 23/2/1 22/2/1
f 25/2/1 24/2/1 23/2/1
f 25/2/1 21/2/1 13/2/1
f 25/2/1 22/2/1 21/2/1
f 26/2/1 16/2/1 24/2/1
f 26/2/1 24/2/1 25/2/1
f 31/2/1 28/2/1 27/2/1
f 32/2/1 30/2/1 29/2/1
f 33/2/1 31/2/1 27/2/1
f 33/2/1 32/2/1 31/2/1
f 34/2/1 30/2/1 32/2/1
f 34/2/1 32/2/1 33/2/1
f 39/6/1 36/6/1 35/6/1
f 40/6/1 38/6/1 37/6/1
f 41/6/1 39/6/1 35/6/1
f 42/6/1 39/6/1 41/6/1
f 43/6/1 38/6/1 40/6/1
f 44/6/1 38/6/1 43/6/1
f 47/7/1 46/7/1 45/7/1
f 48/7/1 46/7/1 47/7/1
f 51/4/1 50/4/1 49/4/1
f 52/4/1 50/4/1 51/4/1
f 57/2/1 54/2/1 53/2/1
f 58/2/1 54/2/1 57/2/1
f 59/2/1 56/2/1 55/2/1
f 60/2/1 56/2/1 59/2/1
f 65/2/1 62/2/1 61/2/1
f 66/2/1 62/2/1 65/2/1
f 67/2/1 64/2/1 63/2/1
f 68/2/1 64/2/1 67/2/1
f 73/6/1 70/6/1 69/6/1
f 74/6/1 72/6/1 71/6/1
f 75/6/1 73/6/1 69/6/1
f 76/6/1 73/6/1 75/6/1
f 77/6/1 72/6/1 74/6/1
f 78/6/1 72/6/1 77/6/1
f 84/2/1 80/2/1 79/2/1
f 85/2/1 80/2/1 84/2/1
f 86/2/1 82/2/1 81/2/1
f 87/2/1 82/2/1 86/2/1
f 89/2/1 84/2/1 83/2/1
f 90/2/1 84/2/1 89/2/1
f 91/2/1 88/2/1 87/2/1
f 92/2/1 88/2/1 91/2/1
f 97/2/1 94/2/1 93/2/1
f 98/2/1 96/2/1 95/2/1
f 99/2/1 94/2/1 97/2/1
f 100/2/1 94/2/1 99/2/1
f 101/2/1 98/2/1 95/2/1
f 102/2/1 98/2/1 101/2/1
f 105/4/1 104/4/1 103/4/1
f 106/4/1 104/4/1 105/4/1
f 111/2/1 108/2/1 107/2/1
f 112/2/1 108/2/1 111/2/1
f 113/2/1 110/2/1 109/2/1
f 114/2/1 110/2/1 113/2/1
f 117/7/1 116/7/1 115/7/1
f 118/7/1 116/7/1 117/7/1
f 119/5/2 120/5/2 121/5/2
f 121/5/2 120/5/2 122/5/2
f 123/2/2 124/2/2 127/2/2
f 127/2/2 124/2/2 128/2/2
f 125/2/2 126/2/2 129/2/2
f 129/2/2 126/2/2 130/2/2
f 131/2/2 132/2/2 135/2/2
f 135/2/2 132/2/2 136/2/2
f 133/2/2 134/2/2 137/2/2
f 137/2/2 134/2/2 138/2/2
f 139/4/2 140/4/2 141/4/2
f 141/4/2 140/4/2 142/4/2
f 143/6/2 144/6/2 147/6/2
f 145/6/2 146/6/2 148/6/2
f 143/6/2 147/6/2 149/6/2
f 149/6/2 147/6/2 150/6/2
f 148/6/2 146/6/2 151/6/2
f 151/6/2 146/6/2 152/6/2
f 153/2/2 154/2/2 157/2/2
f 157/2/2 154/2/2 158/2/2
f 155/2/2 156/2/2 159/2/2
f 159/2/2 156/2/2 160/2/2
f 161/2/2 162/2/2 165/2/2
f 165/2/2 162/2/2 166/2/2
f 163/2/2 164/2/2 167/2/2
f 167/2/2 164/2/2 168/2/2
f 169/2/2 170/2/2 176/2/2
f 176/2/2 170/2/2 177/2/2
f 173/2/2 174/2/2 178/2/2
f 178/2/2 174/2/2 179/2/2
f 175/2/2 176/2/2 181/2/2
f 181/2/2 176/2/2 182/2/2
f 179/2/2 180/2/2 183/2/2
f 183/2/2 180/2/2 184/2/2
f 171/7/2 172/7/2 185/7/2
f 185/7/2 172/7/2 186/7/2
f 187/2/2 188/2/2 191/2/2
f 189/2/2 190/2/2 192/2/2
f 187/2/2 191/2/2 193/2/2
f 191/2/2 192/2/2 193/2/2
f 192/2/2 190/2/2 194/2/2
f 193/2/2 192/2/2 194/2/2
f 195/4/2 196/4/2 197/4/2
f 197/4/2 196/4/2 198/4/2
f 199/6/2 200/6/2 203/6/2
f 201/6/2 202/6/2 204/6/2
f 199/6/2 203/6/2 205/6/2
f 205/6/2 203/6/2 206/6/2
f 204/6/2 202/6/2 207/6/2
f 207/6/2 202/6/2 208/6/2
f 209/1/2 210/1/2 213/1/2
f 213/1/2 210/1/2 214/1/2
f 211/1/2 212/1/2 215/1/2
f 215/1/2 212/1/2 216/1/2
f 217/7/2 218/7/2 220/7/2
f 220/7/2 218/7/2 221/7/2
f 219/2/2 220/2/2 223/2/2
f 220/7/2 221/7/2 223/7/2
f 221/2/2 222/2/2 224/2/2
f 223/7/2 221/7/2 224/7/2
f 219/2/2 223/2/2 225/2/2
f 223/2/2 224/2/2 225/2/2
f 225/2/2 224/2/2 226/2/2
f 224/2/2 222/2/2 227/2/2
f 226/2/2 224/2/2 227/2/2
f 227/2/2 222/2/2 228/2/2
f 219/2/2 225/2/2 229/2/2
f 226/2/2 227/2/2 230/2/2
f 230/2/2 227/2/2 231/2/2
f 228/2/2 222/2/2 232/2/2
f 230/2/2 231/2/2 233/2/2
f 231/2/2 232/2/2 233/2/2
f 219/2/2 229/2/2 233/2/2
f 229/2/2 230/2/2 233/2/2
f 232/2/2 222/2/2 234/2/2
f 233/2/2 232/2/2 234/2/2
f 237/2/3 236/2/3 235/2/3
f 238/2/3 236/2/3 237/2/3
f 241/6/3 240/6/3 239/6/3
f 242/6/3 240/6/3 241/6/3
f 243/6/3 241/6/3 239/6/3
f 243/4/3 242/4/3 241/4/3
f 244/6/3 240/6/3 242/6/3
f 244/4/3 242/4/3 243/4/3
f 245/6/3 243/6/3 239/6/3
f 245/6/3 244/6/3 243/6/3
f 246/6/3 240/6/3 244/6/3
f 246/6/3 244/6/3 245/6/3
f 249/6/3 248/6/3 247/6/3
f 250/6/3 248/6/3 249/6/3
f 251/6/3 249/6/3 247/6/3
f 251/4/3 250/4/3 249/4/3
f 252/6/3 248/6/3 250/6/3
f 252/4/3 250/4/3 251/4/3
f 253/6/3 251/6/3 247/6/3
f 253/6/3 252/6/3 251/6/3
f 254/6/3 248/6/3 252/6/3
f 254/6/3 252/6/3 253/6/3
f 257/2/3 256/2/3 255/2/3
f 258/2/3 256/2/3 257/2/3
f 260/2/3 256/2/3 258/2/3
f 261/2/3 256/2/3 260/2/3
f 261/2/3 260/2/3 259/2/3
f 262/2/3 256/2/3 261/2/3
f 263/2/3 261/2/3 259/2/3
f 263/4/3 262/4/3 261/4/3
f 264/2/3 256/2/3 262/2/3
f 264/4/3 262/4/3 263/4/3
f 265/2/3 263/2/3 259/2/3
f 265/2/3 264/2/3 263/2/3
f 266/2/3 264/2/3 265/2/3
f 267/2/3 256/2/3 264/2/3
f 267/2/3 264/2/3 266/2/3
f 269/2/3 267/2/3 266/2/3
f 269/2/3 268/2/3 267/2/3
f 270/2/3 268/2/3 269/2/3
f 272/2/3 269/2/3 266/2/3
f 273/2/3 272/2/3 271/2/3
f 274/2/3 269/2/3 272/2/3
f 274/2/3 272/2/3 273/2/3
f 279/2/3 276/2/3 275/2/3
f 280/2/3 276/2/3 279/2/3
f 281/2/3 278/2/3 277/2/3
f 282/2/3 278/2/3 281/2/3
f 284/2/3 276/2/3 280/2/3
f 285/2/3 284/2/3 283/2/3
f 286/2/3 276/2/3 284/2/3
f 286/2/3 284/2/3 285/2/3
f 288/2/3 278/2/3 282/2/3
f 289/2/3 288/2/3 287/2/3
f 290/2/3 278/2/3 288/2/3
f 290/2/3 288/2/3 289/2/3
f 293/2/3 292/2/3 291/2/3
f 294/2/3 292/2/3 293/2/3
f 297/2/3 278/2/3 290/2/3
f 298/2/3 296/2/3 295/2/3
f 298/2/3 297/2/3 296/2/3
f 299/2/3 278/2/3 297/2/3
f 299/2/3 297/2/3 298/2/3
f 301/2/3 292/2/3 294/2/3
f 302/2/3 301/2/3 300/2/3
f 303/2/3 292/2/3 301/2/3
f 303/2/3 301/2/3 302/2/3
f 306/3/3 305/3/3 304/3/3
f 307/3/3 305/3/3 306/3/3
f 310/7/3 309/7/3 308/7/3
f 311/7/3 309/7/3 310/7/3
f 314/7/3 313/7/3 312/7/3
f 315/7/3 313/7/3 314/7/3
f 318/5/3 317/5/3 316/5/3
f 319/5/3 318/5/3 316/5/3
f 320/5/3 318/5/3 319/5/3
f 325/7/3 322/7/3 321/7/3
f 326/7/3 322/7/3 325/7/3
f 327/2/3 324/2/3 323/2/3
f 328/2/3 324/2/3 327/2/3
f 331/3/3 330/3/3 329/3/3
f 332/3/3 330/3/3 331/3/3
f 335/2/3 334/2/3 333/2/3
f 336/2/3 334/2/3 335/2/3
f 339/2/3 338/2/3 337/2/3
f 340/2/3 338/2/3 339/2/3
f 343/6/3 342/6/3 341/6/3
f 344/6/3 342/6/3 343/6/3
f 345/6/3 343/6/3 341/6/3
f 347/6/3 345/6/3 341/6/3
f 347/6/3 346/6/3 345/6/3
f 348/6/3 346/6/3 347/6/3
f 353/2/3 352/2/3 351/2/3
f 354/2/3 352/2/3 353/2/3
f 355/6/3 350/6/3 349/6/3
f 356/6/3 350/6/3 355/6/3
f 357/6/3 355/6/3 349/6/3
f 359/6/3 357/6/3 349/6/3
f 359/6/3 358/6/3 357/6/3
f 360/6/3 358/6/3 359/6/3
f 363/2/3 362/2/3 361/2/3
f 364/2/3 362/2/3 363/2/3
f 367/2/3 366/2/3 365/2/3
f 368/2/3 366/2/3 367/2/3
f 369/2/4 370/2/4 371/2/4
f 371/2/4 370/2/4 372/2/4
f 373/6/4 374/6/4 375/6/4
f 375/6/4 374/6/4 376/6/4
f 373/6/4 375/6/4 377/6/4
f 373/6/4 377/6/4 379/6/4
f 377/6/4 378/6/4 379/6/4
f 379/6/4 378/6/4 380/6/4
f 383/2/4 384/2/4 385/2/4
f 385/2/4 384/2/4 386/2/4
f 381/6/4 382/6/4 387/6/4
f 387/6/4 382/6/4 388/6/4
f 381/6/4 387/6/4 389/6/4
f 381/6/4 389/6/4 391/6/4
f 389/6/4 390/6/4 391/6/4
f 391/6/4 390/6/4 392/6/4
f 393/2/4 394/2/4 395/2/4
f 395/2/4 394/2/4 396/2/4
f 397/2/4 398/2/4 399/2/4
f 399/2/4 398/2/4 400/2/4
f 401/2/4 402/2/4 403/2/4
f 403/2/4 402/2/4 404/2/4
f 405/5/4 406/5/4 409/5/4
f 407/3/4 408/3/4 410/3/4
f 410/3/4 408/3/4 411/3/4
f 405/5/4 409/5/4 412/5/4
f 412/5/4 409/5/4 413/5/4
f 414/7/4 415/7/4 418/7/4
f 418/7/4 415/7/4 419/7/4
f 416/2/4 417/2/4 420/2/4
f 420/2/4 417/2/4 421/2/4
f 422/3/4 423/3/4 424/3/4
f 424/3/4 423/3/4 425/3/4
f 426/7/4 427/7/4 428/7/4
f 428/7/4 427/7/4 429/7/4
f 430/7/4 431/7/4 432/7/4
f 432/7/4 431/7/4 433/7/4
f 434/2/4 435/2/4 438/2/4
f 438/2/4 435/2/4 439/2/4
f 436/2/4 437/2/4 440/2/4
f 440/2/4 437/2/4 441/2/4
f 439/2/4 435/2/4 443/2/4
f 442/2/4 443/2/4 444/2/4
f 443/2/4 435/2/4 445/2/4
f 444/2/4 443/2/4 445/2/4
f 441/2/4 437/2/4 447/2/4
f 446/2/4 447/2/4 448/2/4
f 447/2/4 437/2/4 449/2/4
f 448/2/4 447/2/4 449/2/4
f 450/2/4 451/2/4 452/2/4
f 452/2/4 451/2/4 453/2/4
f 449/2/4 437/2/4 456/2/4
f 454/2/4 455/2/4 457/2/4
f 455/2/4 456/2/4 457/2/4
f 456/2/4 437/2/4 458/2/4
f 457/2/4 456/2/4 458/2/4
f 453/2/4 451/2/4 460/2/4
f 459/2/4 460/2/4 461/2/4
f 460/2/4 451/2/4 462/2/4
f 461/2/4 460/2/4 462/2/4
f 463/2/4 464/2/4 465/2/4
f 465/2/4 464/2/4 466/2/4
f 466/2/4 464/2/4 468/2/4
f 468/2/4 464/2/4 469/2/4
f 467/2/4 468/2/4 469/2/4
f 469/2/4 464/2/4 470/2/4
f 467/2/4 469/2/4 471/2/4
f 469/4/4 470/4/4 471/4/4
f 470/2/4 464/2/4 472/2/4
f 471/4/4 470/4/4 472/4/4
f 467/2/4 471/2/4 473/2/4
f 471/2/4 472/2/4 473/2/4
f 473/2/4 472/2/4 474/2/4
f 472/2/4 464/2/4 475/2/4
f 474/2/4 472/2/4 475/2/4
f 474/2/4 475/2/4 477/2/4
f 475/2/4 476/2/4 477/2/4
f 477/2/4 476/2/4 478/2/4
f 474/2/4 477/2/4 480/2/4
f 479/2/4 480/2/4 481/2/4
f 480/2/4 477/2/4 482/2/4
f 481/2/4 480/2/4 482/2/4
f 483/6/4 484/6/4 485/6/4
f 485/6/4 484/6/4 486/6/4
f 483/6/4 485/6/4 487/6/4
f 485/4/4 486/4/4 487/4/4
f 486/6/4 484/6/4 488/6/4
f 487/4/4 486/4/4 488/4/4
f 483/6/4 487/6/4 489/6/4
f 487/6/4 488/6/4 489/6/4
f 488/6/4 484/6/4 490/6/4
f 489/6/4 488/6/4 490/6/4
f 491/6/4 492/6/4 493/6/4
f 493/6/4 492/6/4 494/6/4
f 491/6/4 493/6/4 495/6/4
f 493/4/4 494/4/4 495/4/4
f 494/6/4 492/6/4 496/6/4
f 495/4/4 494/4/4 496/4/4
f 491/6/4 495/6/4 497/6/4
f 495/6/4 496/6/4 497/6/4
f 496/6/4 492/6/4 498/6/4
f 497/6/4 496/6/4 498/6/4
f 499/2/4 500/2/4 501/2/4
f 501/2/4 500/2/4 502/2/4
f 507/6/5 504/6/5 503/6/5
f 508/6/5 504/6/5 507/6/5
f 509/6/5 506/6/5 505/6/5
f 510/6/5 506/6/5 509/6/5
f 515/6/5 512/6/5 511/6/5
f 516/6/5 512/6/5 515/6/5
f 517/6/5 514/6/5 513/6/5
f 518/6/5 514/6/5 517/6/5
f 525/5/5 524/5/5 523/5/5
f 526/5/5 524/5/5 525/5/5
f 529/7/5 528/7/5 527/7/5
f 530/7/5 528/7/5 529/7/5
f 531/4/5 520/4/5 519/4/5
f 532/4/5 520/4/5 531/4/5
f 533/4/5 522/4/5 521/4/5
f 534/4/5 522/4/5 533/4/5
f 541/2/5 536/2/5 535/2/5
f 546/2/5 538/2/5 537/2/5
f 547/2/5 538/2/5 546/2/5
f 552/2/5 540/2/5 539/2/5
f 553/2/5 541/2/5 535/2/5
f 553/2/5 542/2/5 541/2/5
f 553/2/5 543/2/5 542/2/5
f 554/2/5 543/2/5 553/2/5
f 556/2/5 543/2/5 554/2/5
f 557/2/5 551/2/5 550/2/5
f 557/2/5 552/2/5 551/2/5
f 557/2/5 540/2/5 552/2/5
f 558/2/5 540/2/5 557/2/5
f 559/2/5 557/2/5 550/2/5
f 561/2/5 556/2/5 555/2/5
f 561/2/5 543/2/5 556/2/5
f 562/2/5 543/2/5 561/2/5
f 563/2/5 543/2/5 562/2/5
f 564/2/5 545/2/5 544/2/5
f 564/2/5 546/2/5 545/2/5
f 564/2/5 547/2/5 546/2/5
f 564/2/5 548/2/5 547/2/5
f 564/2/5 549/2/5 548/2/5
f 565/2/5 549/2/5 564/2/5
f 566/2/5 549/2/5 565/2/5
f 567/2/5 549/2/5 566/2/5
f 568/2/5 549/2/5 567/2/5
f 569/2/5 549/2/5 568/2/5
f 570/2/5 560/2/5 559/2/5
f 570/2/5 559/2/5 550/2/5
f 571/2/5 560/2/5 570/2/5
f 572/2/5 560/2/5 571/2/5
f 573/2/5 561/2/5 555/2/5
f 574/2/5 561/2/5 573/2/5
f 575/2/5 567/2/5 566/2/5
f 576/2/5 567/2/5 575/2/5
f 577/2/5 560/2/5 572/2/5
f 578/2/5 560/2/5 577/2/5
f 581/3/5 580/3/5 579/3/5
f 582/3/5 580/3/5 581/3/5
f 585/3/5 584/3/5 583/3/5
f 586/3/5 584/3/5 585/3/5
f 591/2/5 588/2/5 587/2/5
f 592/2/5 588/2/5 591/2/5
f 593/2/5 590/2/5 589/2/5
f 594/2/5 590/2/5 593/2/5
f 599/2/5 596/2/5 595/2/5
f 600/2/5 596/2/5 599/2/5
f 601/2/5 598/2/5 597/2/5
f 602/2/5 598/2/5 601/2/5
f 605/2/5 604/2/5 603/2/5
f 606/2/5 604/2/5 605/2/5
f 609/2/5 608/2/5 607/2/5
f 610/2/5 608/2/5 609/2/5
f 613/2/5 612/2/5 611/2/5
f 614/2/5 612/2/5 613/2/5
f 617/2/5 616/2/5 615/2/5
f 618/2/5 616/2/5 617/2/5
f 624/2/5 620/2/5 619/2/5
f 625/2/5 620/2/5 624/2/5
f 626/2/5 622/2/5 621/2/5
f 627/2/5 622/2/5 626/2/5
f 629/2/5 624/2/5 623/2/5
f 630/2/5 624/2/5 629/2/5
f 633/2/5 628/2/5 627/2/5
f 634/2/5 628/2/5 633/2/5
f 635/2/5 631/2/5 630/2/5
f 636/2/5 631/2/5 635/2/5
f 637/2/5 633/2/5 632/2/5
f 638/2/5 633/2/5 637/2/5
f 639/5/6 640/5/6 641/5/6
f 641/5/6 640/5/6 642/5/6
f 643/6/6 644/6/6 647/6/6
f 647/6/6 644/6/6 648/6/6
f 645/6/6 646/6/6 649/6/6
f 649/6/6 646/6/6 650/6/6
f 651/2/6 652/2/6 653/2/6
f 653/2/6 652/2/6 654/2/6
f 655/2/6 656/2/6 661/2/6
f 661/2/6 656/2/6 662/2/6
f 657/6/6 658/6/6 663/6/6
f 663/6/6 658/6/6 664/6/6
f 659/6/6 660/6/6 665/6/6
f 665/6/6 660/6/6 666/6/6
f 667/3/6 668/3/6 669/3/6
f 669/3/6 668/3/6 670/3/6
f 671/3/6 672/3/6 673/3/6
f 673/3/6 672/3/6 674/3/6
f 675/2/6 676/2/6 679/2/6
f 679/2/6 676/2/6 680/2/6
f 680/2/6 676/2/6 681/2/6
f 681/2/6 676/2/6 682/2/6
f 682/2/6 676/2/6 683/2/6
f 677/2/6 678/2/6 684/2/6
f 684/2/6 678/2/6 685/2/6
f 675/2/6 679/2/6 686/2/6
f 680/2/6 681/2/6 687/2/6
f 687/2/6 681/2/6 688/2/6
f 682/2/6 683/2/6 689/2/6
f 683/2/6 684/2/6 689/2/6
f 689/2/6 684/2/6 690/2/6
f 685/2/6 678/2/6 691/2/6
f 686/2/6 687/2/6 692/2/6
f 675/2/6 686/2/6 692/2/6
f 692/2/6 687/2/6 693/2/6
f 690/2/6 691/2/6 696/2/6
f 691/2/6 678/2/6 697/2/6
f 696/2/6 691/2/6 697/2/6
f 675/2/6 692/2/6 698/2/6
f 693/2/6 694/2/6 699/2/6
f 699/2/6 694/2/6 700/2/6
f 695/2/6 696/2/6 701/2/6
f 701/2/6 696/2/6 702/2/6
f 702/2/6 696/2/6 703/2/6
f 697/2/6 678/2/6 704/2/6
f 675/2/6 698/2/6 705/2/6
f 699/2/6 700/2/6 705/2/6
f 698/2/6 699/2/6 705/2/6
f 701/2/6 702/2/6 705/2/6
f 700/2/6 701/2/6 705/2/6
f 705/2/6 702/2/6 706/2/6
f 703/2/6 704/2/6 707/2/6
f 704/2/6 678/2/6 708/2/6
f 707/2/6 704/2/6 708/2/6
f 709/2/6 710/2/6 711/2/6
f 711/2/6 710/2/6 712/2/6
f 713/2/6 714/2/6 715/2/6
f 715/2/6 714/2/6 716/2/6
f 717/2/6 718/2/6 719/2/6
f 719/2/6 718/2/6 720/2/6
f 721/2/6 722/2/6 723/2/6
f 723/2/6 722/2/6 724/2/6
f 725/2/6 726/2/6 727/2/6
f 727/2/6 726/2/6 728/2/6
