# MagicaVoxel @ ephtracy

# material
mtllib troncoGrande.mtl
usemtl palette

# normals
vn -1 0 0
vn 1 0 0
vn 0 0 1
vn 0 0 -1
vn 0 -1 0
vn 0 1 0

# texcoords
vt 0.533203 0.5
vt 0.537109 0.5

# verts
v -20 0 5
v -20 0 3
v -20 0 -3
v -20 0 -5
v -20 1 3
v -20 1 -3
v -20 2 5
v -20 2 -5
v 20 0 5
v 20 0 3
v 20 0 -3
v 20 0 -5
v 20 1 3
v 20 1 -3
v 20 2 5
v 20 2 -5
v -20 0 5
v -20 2 5
v -19 0 5
v -19 2 5
v -1 0 5
v -1 1 5
v 1 0 5
v 1 1 5
v 19 0 5
v 19 2 5
v 20 0 5
v 20 2 5
v -20 0 -3
v -20 1 -3
v -19 0 -3
v -19 1 -3
v -13 1 -3
v -1 0 -3
v -1 1 -3
v 1 0 -3
v 1 1 -3
v 13 1 -3
v 19 0 -3
v 19 1 -3
v 20 0 -3
v 20 1 -3
v -20 0 3
v -20 1 3
v -19 0 3
v -19 1 3
v -1 0 3
v -1 1 3
v 1 0 3
v 1 1 3
v 19 0 3
v 19 1 3
v 20 0 3
v 20 1 3
v -20 0 -5
v -20 2 -5
v -19 0 -5
v -19 2 -5
v 19 0 -5
v 19 2 -5
v 20 0 -5
v 20 2 -5
v -20 0 5
v -19 0 5
v -1 0 5
v 1 0 5
v 19 0 5
v 20 0 5
v -20 0 3
v -19 0 3
v -1 0 3
v 1 0 3
v 19 0 3
v 20 0 3
v -20 0 -3
v -19 0 -3
v -1 0 -3
v 1 0 -3
v 19 0 -3
v 20 0 -3
v -1 0 -4
v 1 0 -4
v -20 0 -5
v -19 0 -5
v 19 0 -5
v 20 0 -5
v -20 1 3
v -19 1 3
v -1 1 3
v 1 1 3
v 19 1 3
v 20 1 3
v -15 1 2
v -3 1 2
v 3 1 2
v 15 1 2
v -15 1 1
v -3 1 1
v 3 1 1
v 15 1 1
v -17 1 -0
v -8 1 -0
v -3 1 -0
v 3 1 -0
v 8 1 -0
v 17 1 -0
v -17 1 -1
v -8 1 -1
v -3 1 -1
v 3 1 -1
v 8 1 -1
v 17 1 -1
v -13 1 -2
v -1 1 -2
v 1 1 -2
v 13 1 -2
v -20 1 -3
v -19 1 -3
v -13 1 -3
v -1 1 -3
v 1 1 -3
v 13 1 -3
v 19 1 -3
v 20 1 -3
v -20 2 5
v -19 2 5
v 19 2 5
v 20 2 5
v -18 2 4
v -9 2 4
v -5 2 4
v 6 2 4
v 9 2 4
v 18 2 4
v -18 2 3
v -9 2 3
v -5 2 3
v 6 2 3
v 9 2 3
v 18 2 3
v -15 2 2
v -3 2 2
v 3 2 2
v 15 2 2
v -15 2 1
v -3 2 1
v 3 2 1
v 15 2 1
v -17 2 -0
v -8 2 -0
v -3 2 -0
v 3 2 -0
v 8 2 -0
v 17 2 -0
v -17 2 -1
v -8 2 -1
v -3 2 -1
v 3 2 -1
v 8 2 -1
v 17 2 -1
v -13 2 -2
v -1 2 -2
v 1 2 -2
v 13 2 -2
v -18 2 -3
v -15 2 -3
v -13 2 -3
v -1 2 -3
v 1 2 -3
v 13 2 -3
v 15 2 -3
v 18 2 -3
v -18 2 -4
v -15 2 -4
v 15 2 -4
v 18 2 -4
v -20 2 -5
v -19 2 -5
v 19 2 -5
v 20 2 -5

# faces
f 5/1/1 2/1/1 1/1/1
f 6/1/1 4/1/1 3/1/1
f 7/1/1 5/1/1 1/1/1
f 7/1/1 6/1/1 5/1/1
f 8/1/1 4/1/1 6/1/1
f 8/1/1 6/1/1 7/1/1
f 9/1/2 10/1/2 13/1/2
f 11/1/2 12/1/2 14/1/2
f 9/1/2 13/1/2 15/1/2
f 13/1/2 14/1/2 15/1/2
f 14/1/2 12/1/2 16/1/2
f 15/1/2 14/1/2 16/1/2
f 19/1/3 18/1/3 17/1/3
f 20/1/3 18/1/3 19/1/3
f 21/2/3 20/2/3 19/2/3
f 22/2/3 20/2/3 21/2/3
f 23/1/3 22/1/3 21/1/3
f 24/2/3 20/2/3 22/2/3
f 24/1/3 22/1/3 23/1/3
f 25/2/3 24/2/3 23/2/3
f 26/2/3 20/2/3 24/2/3
f 26/2/3 24/2/3 25/2/3
f 27/1/3 26/1/3 25/1/3
f 28/1/3 26/1/3 27/1/3
f 31/1/3 30/1/3 29/1/3
f 32/1/3 30/1/3 31/1/3
f 33/2/3 32/2/3 31/2/3
f 34/2/3 33/2/3 31/2/3
f 35/2/3 33/2/3 34/2/3
f 36/1/3 35/1/3 34/1/3
f 37/1/3 35/1/3 36/1/3
f 38/2/3 37/2/3 36/2/3
f 39/2/3 38/2/3 36/2/3
f 40/2/3 38/2/3 39/2/3
f 41/1/3 40/1/3 39/1/3
f 42/1/3 40/1/3 41/1/3
f 43/1/4 44/1/4 45/1/4
f 45/1/4 44/1/4 46/1/4
f 45/2/4 46/2/4 47/2/4
f 47/2/4 46/2/4 48/2/4
f 47/1/4 48/1/4 49/1/4
f 49/1/4 48/1/4 50/1/4
f 49/2/4 50/2/4 51/2/4
f 51/2/4 50/2/4 52/2/4
f 51/1/4 52/1/4 53/1/4
f 53/1/4 52/1/4 54/1/4
f 55/1/4 56/1/4 57/1/4
f 57/1/4 56/1/4 58/1/4
f 57/2/4 58/2/4 59/2/4
f 59/2/4 58/2/4 60/2/4
f 59/1/4 60/1/4 61/1/4
f 61/1/4 60/1/4 62/1/4
f 69/1/5 64/1/5 63/1/5
f 70/2/5 65/2/5 64/2/5
f 70/1/5 64/1/5 69/1/5
f 71/1/5 66/1/5 65/1/5
f 71/2/5 65/2/5 70/2/5
f 72/2/5 67/2/5 66/2/5
f 72/1/5 66/1/5 71/1/5
f 73/1/5 68/1/5 67/1/5
f 73/2/5 67/2/5 72/2/5
f 74/1/5 68/1/5 73/1/5
f 81/2/5 77/2/5 76/2/5
f 81/1/5 78/1/5 77/1/5
f 82/2/5 79/2/5 78/2/5
f 82/1/5 78/1/5 81/1/5
f 83/1/5 76/1/5 75/1/5
f 84/2/5 81/2/5 76/2/5
f 84/1/5 76/1/5 83/1/5
f 84/2/5 82/2/5 81/2/5
f 85/2/5 79/2/5 82/2/5
f 85/2/5 82/2/5 84/2/5
f 85/1/5 80/1/5 79/1/5
f 86/1/5 80/1/5 85/1/5
f 93/2/5 89/2/5 88/2/5
f 93/2/5 90/2/5 89/2/5
f 93/2/5 91/2/5 90/2/5
f 94/2/5 91/2/5 93/2/5
f 95/2/5 91/2/5 94/2/5
f 96/2/5 91/2/5 95/2/5
f 97/2/5 93/2/5 88/2/5
f 97/1/5 94/1/5 93/1/5
f 98/2/5 95/2/5 94/2/5
f 98/1/5 94/1/5 97/1/5
f 99/1/5 96/1/5 95/1/5
f 99/2/5 95/2/5 98/2/5
f 100/2/5 91/2/5 96/2/5
f 100/1/5 96/1/5 99/1/5
f 101/2/5 99/2/5 98/2/5
f 101/2/5 98/2/5 97/2/5
f 101/2/5 100/2/5 99/2/5
f 101/2/5 97/2/5 88/2/5
f 102/2/5 100/2/5 101/2/5
f 103/2/5 100/2/5 102/2/5
f 104/2/5 100/2/5 103/2/5
f 105/2/5 100/2/5 104/2/5
f 106/2/5 91/2/5 100/2/5
f 106/2/5 100/2/5 105/2/5
f 107/2/5 101/2/5 88/2/5
f 107/1/5 102/1/5 101/1/5
f 108/2/5 103/2/5 102/2/5
f 108/1/5 102/1/5 107/1/5
f 109/1/5 104/1/5 103/1/5
f 109/2/5 103/2/5 108/2/5
f 110/2/5 105/2/5 104/2/5
f 110/1/5 104/1/5 109/1/5
f 111/1/5 106/1/5 105/1/5
f 111/2/5 105/2/5 110/2/5
f 112/2/5 91/2/5 106/2/5
f 112/1/5 106/1/5 111/1/5
f 113/2/5 109/2/5 108/2/5
f 113/2/5 111/2/5 110/2/5
f 113/2/5 112/2/5 111/2/5
f 113/2/5 108/2/5 107/2/5
f 113/2/5 110/2/5 109/2/5
f 114/2/5 112/2/5 113/2/5
f 115/2/5 112/2/5 114/2/5
f 116/2/5 112/2/5 115/2/5
f 117/1/5 88/1/5 87/1/5
f 118/2/5 107/2/5 88/2/5
f 118/1/5 88/1/5 117/1/5
f 118/2/5 113/2/5 107/2/5
f 119/1/5 114/1/5 113/1/5
f 119/2/5 113/2/5 118/2/5
f 120/2/5 115/2/5 114/2/5
f 120/1/5 114/1/5 119/1/5
f 121/1/5 116/1/5 115/1/5
f 121/2/5 115/2/5 120/2/5
f 122/2/5 112/2/5 116/2/5
f 122/1/5 116/1/5 121/1/5
f 123/1/5 92/1/5 91/1/5
f 123/2/5 112/2/5 122/2/5
f 123/2/5 91/2/5 112/2/5
f 124/1/5 92/1/5 123/1/5
f 126/2/6 127/2/6 129/2/6
f 129/2/6 127/2/6 130/2/6
f 130/2/6 127/2/6 131/2/6
f 131/2/6 127/2/6 132/2/6
f 132/2/6 127/2/6 133/2/6
f 133/2/6 127/2/6 134/2/6
f 126/2/6 129/2/6 135/2/6
f 129/1/6 130/1/6 135/1/6
f 130/2/6 131/2/6 136/2/6
f 135/1/6 130/1/6 136/1/6
f 131/1/6 132/1/6 137/1/6
f 136/2/6 131/2/6 137/2/6
f 132/2/6 133/2/6 138/2/6
f 137/1/6 132/1/6 138/1/6
f 133/1/6 134/1/6 139/1/6
f 138/2/6 133/2/6 139/2/6
f 134/2/6 127/2/6 140/2/6
f 139/1/6 134/1/6 140/1/6
f 138/2/6 139/2/6 141/2/6
f 137/2/6 138/2/6 141/2/6
f 139/2/6 140/2/6 141/2/6
f 136/2/6 137/2/6 141/2/6
f 135/2/6 136/2/6 141/2/6
f 141/2/6 140/2/6 142/2/6
f 142/2/6 140/2/6 143/2/6
f 143/2/6 140/2/6 144/2/6
f 135/2/6 141/2/6 145/2/6
f 141/1/6 142/1/6 145/1/6
f 142/2/6 143/2/6 146/2/6
f 145/1/6 142/1/6 146/1/6
f 143/1/6 144/1/6 147/1/6
f 146/2/6 143/2/6 147/2/6
f 144/2/6 140/2/6 148/2/6
f 147/1/6 144/1/6 148/1/6
f 146/2/6 147/2/6 149/2/6
f 145/2/6 146/2/6 149/2/6
f 147/2/6 148/2/6 149/2/6
f 135/2/6 145/2/6 149/2/6
f 149/2/6 148/2/6 150/2/6
f 150/2/6 148/2/6 151/2/6
f 151/2/6 148/2/6 152/2/6
f 152/2/6 148/2/6 153/2/6
f 148/2/6 140/2/6 154/2/6
f 153/2/6 148/2/6 154/2/6
f 135/2/6 149/2/6 155/2/6
f 149/1/6 150/1/6 155/1/6
f 150/2/6 151/2/6 156/2/6
f 155/1/6 150/1/6 156/1/6
f 151/1/6 152/1/6 157/1/6
f 156/2/6 151/2/6 157/2/6
f 152/2/6 153/2/6 158/2/6
f 157/1/6 152/1/6 158/1/6
f 153/1/6 154/1/6 159/1/6
f 158/2/6 153/2/6 159/2/6
f 154/2/6 140/2/6 160/2/6
f 159/1/6 154/1/6 160/1/6
f 156/2/6 157/2/6 161/2/6
f 158/2/6 159/2/6 161/2/6
f 159/2/6 160/2/6 161/2/6
f 155/2/6 156/2/6 161/2/6
f 157/2/6 158/2/6 161/2/6
f 161/2/6 160/2/6 162/2/6
f 162/2/6 160/2/6 163/2/6
f 163/2/6 160/2/6 164/2/6
f 126/2/6 135/2/6 165/2/6
f 135/2/6 155/2/6 165/2/6
f 155/2/6 161/2/6 165/2/6
f 165/2/6 161/2/6 166/2/6
f 161/1/6 162/1/6 167/1/6
f 166/2/6 161/2/6 167/2/6
f 162/2/6 163/2/6 168/2/6
f 167/1/6 162/1/6 168/1/6
f 163/1/6 164/1/6 169/1/6
f 168/2/6 163/2/6 169/2/6
f 164/2/6 160/2/6 170/2/6
f 169/1/6 164/1/6 170/1/6
f 170/2/6 160/2/6 171/2/6
f 140/2/6 127/2/6 172/2/6
f 171/2/6 160/2/6 172/2/6
f 160/2/6 140/2/6 172/2/6
f 165/1/6 166/1/6 173/1/6
f 126/2/6 165/2/6 173/2/6
f 170/2/6 171/2/6 174/2/6
f 173/1/6 166/1/6 174/1/6
f 168/2/6 169/2/6 174/2/6
f 169/2/6 170/2/6 174/2/6
f 167/2/6 168/2/6 174/2/6
f 166/2/6 167/2/6 174/2/6
f 171/1/6 172/1/6 175/1/6
f 174/2/6 171/2/6 175/2/6
f 172/2/6 127/2/6 176/2/6
f 175/1/6 172/1/6 176/1/6
f 125/1/6 126/1/6 177/1/6
f 126/2/6 173/2/6 178/2/6
f 177/1/6 126/1/6 178/1/6
f 173/2/6 174/2/6 178/2/6
f 175/2/6 176/2/6 178/2/6
f 174/2/6 175/2/6 178/2/6
f 176/2/6 127/2/6 179/2/6
f 178/2/6 176/2/6 179/2/6
f 127/1/6 128/1/6 179/1/6
f 179/1/6 128/1/6 180/1/6
