# MagicaVoxel @ ephtracy

# material
mtllib peixe.mtl
usemtl palette

# normals
vn -1 0 0
vn 1 0 0
vn 0 0 1
vn 0 0 -1
vn 0 -1 0
vn 0 1 0

# texcoords
vt 0.00195313 0.5
vt 0.00585938 0.5
vt 0.751953 0.5
vt 0.798828 0.5
vt 0.845703 0.5
vt 0.958984 0.5
vt 0.994141 0.5

# verts
v -4 8 2
v -4 8 -0
v -4 9 2
v -4 9 -0
v -3 0 2
v -3 0 -0
v -3 1 8
v -3 1 4
v -3 1 2
v -3 1 -0
v -3 1 -5
v -3 7 8
v -3 7 4
v -3 7 2
v -3 7 -0
v -3 7 -5
v -3 8 2
v -3 8 -0
v -2 0 6
v -2 0 3
v -2 1 6
v -2 1 4
v -2 1 3
v -2 3 9
v -2 3 8
v -2 3 -5
v -2 3 -7
v -2 5 9
v -2 5 8
v -2 5 -5
v -2 5 -7
v -2 7 6
v -2 7 4
v -2 7 3
v -2 8 6
v -2 8 3
v 3 3 3
v 3 3 -3
v 3 4 3
v 3 4 -3
v -2 0 2
v -2 0 -0
v -2 1 2
v -2 1 -0
v -2 7 2
v -2 7 -0
v -2 9 2
v -2 9 -0
v -1 3 9
v -1 3 8
v -1 5 9
v -1 5 8
v 0 1 8
v 0 1 7
v 0 7 8
v 0 7 7
v 1 0 6
v 1 0 3
v 1 1 6
v 1 1 4
v 1 1 3
v 1 7 6
v 1 7 4
v 1 7 3
v 1 8 6
v 1 8 3
v 2 1 7
v 2 1 4
v 2 1 -5
v 2 3 -5
v 2 4 3
v 2 4 -3
v 2 5 3
v 2 5 -3
v 2 5 -5
v 2 7 7
v 2 7 4
v 2 7 -5
v 4 3 3
v 4 3 -3
v 4 3 -5
v 4 3 -7
v 4 5 3
v 4 5 -3
v 4 5 -5
v 4 5 -7
v -2 3 9
v -2 5 9
v -1 3 9
v -1 5 9
v -3 1 8
v -3 7 8
v -2 2 8
v -2 3 8
v -2 5 8
v -2 6 8
v -1 2 8
v -1 3 8
v -1 5 8
v -1 6 8
v 0 1 8
v 0 7 8
v 0 1 7
v 0 7 7
v 2 1 7
v 2 7 7
v -2 0 6
v -2 1 6
v -2 7 6
v -2 8 6
v 1 0 6
v 1 1 6
v 1 7 6
v 1 8 6
v 2 4 3
v 2 5 3
v 3 3 3
v 3 4 3
v 4 3 3
v 4 5 3
v -4 8 2
v -4 9 2
v -3 0 2
v -3 1 2
v -3 7 2
v -3 8 2
v -2 0 2
v -2 1 2
v -2 7 2
v -2 9 2
v 2 3 -5
v 2 5 -5
v 4 3 -5
v 4 5 -5
v -2 0 3
v -2 1 3
v -2 7 3
v -2 8 3
v 1 0 3
v 1 1 3
v 1 7 3
v 1 8 3
v -4 8 -0
v -4 9 -0
v -3 0 -0
v -3 1 -0
v -3 7 -0
v -3 8 -0
v -2 0 -0
v -2 1 -0
v -2 7 -0
v -2 9 -0
v 2 4 -3
v 2 5 -3
v 3 3 -3
v 3 4 -3
v 4 3 -3
v 4 5 -3
v -3 1 -5
v -3 7 -5
v -2 3 -5
v -2 5 -5
v 2 1 -5
v 2 3 -5
v 2 5 -5
v 2 7 -5
v -2 3 -7
v -2 5 -7
v 4 3 -7
v 4 5 -7
v -2 0 6
v 1 0 6
v -1 0 5
v 0 0 5
v -1 0 4
v 0 0 4
v -2 0 3
v 1 0 3
v -3 0 2
v -2 0 2
v -3 0 -0
v -2 0 -0
v -3 1 8
v 0 1 8
v 0 1 7
v 2 1 7
v -2 1 6
v 1 1 6
v -3 1 4
v -2 1 4
v 1 1 4
v 2 1 4
v -2 1 3
v 1 1 3
v -3 1 2
v -2 1 2
v -3 1 -0
v -2 1 -0
v -3 1 -5
v 2 1 -5
v -2 3 9
v -1 3 9
v -2 3 8
v -1 3 8
v 3 3 3
v 4 3 3
v 3 3 -3
v 4 3 -3
v -2 3 -5
v 2 3 -5
v 4 3 -5
v -2 3 -7
v 4 3 -7
v 2 4 3
v 3 4 3
v 2 4 -3
v 3 4 -3
v -4 8 2
v -3 8 2
v -4 8 -0
v -3 8 -0
v -2 5 9
v -1 5 9
v -2 5 8
v -1 5 8
v 2 5 3
v 4 5 3
v 2 5 -3
v 4 5 -3
v -2 5 -5
v 2 5 -5
v 4 5 -5
v -2 5 -7
v 4 5 -7
v -3 7 8
v 0 7 8
v 0 7 7
v 2 7 7
v -2 7 6
v 1 7 6
v -3 7 4
v -2 7 4
v 1 7 4
v 2 7 4
v -2 7 3
v 1 7 3
v -3 7 2
v -2 7 2
v -3 7 -0
v -2 7 -0
v -3 7 -5
v 2 7 -5
v -2 8 6
v 1 8 6
v -1 8 5
v 0 8 5
v -1 8 4
v 0 8 4
v -2 8 3
v 1 8 3
v -4 9 2
v -2 9 2
v -4 9 -0
v -2 9 -0

# faces
f 3/2/1 2/2/1 1/2/1
f 4/2/1 2/2/1 3/2/1
f 9/2/1 6/2/1 5/2/1
f 10/2/1 6/2/1 9/2/1
f 12/3/1 8/3/1 7/3/1
f 13/4/1 11/4/1 10/4/1
f 13/3/1 8/3/1 12/3/1
f 13/4/1 9/4/1 8/4/1
f 13/4/1 10/4/1 9/4/1
f 14/4/1 11/4/1 13/4/1
f 15/4/1 11/4/1 14/4/1
f 16/4/1 11/4/1 15/4/1
f 17/2/1 15/2/1 14/2/1
f 18/2/1 15/2/1 17/2/1
f 21/6/1 20/6/1 19/6/1
f 22/6/1 20/6/1 21/6/1
f 23/6/1 20/6/1 22/6/1
f 28/5/1 25/5/1 24/5/1
f 29/5/1 25/5/1 28/5/1
f 30/2/1 27/2/1 26/2/1
f 31/2/1 27/2/1 30/2/1
f 35/6/1 33/6/1 32/6/1
f 35/6/1 34/6/1 33/6/1
f 36/6/1 34/6/1 35/6/1
f 39/2/1 38/2/1 37/2/1
f 40/2/1 38/2/1 39/2/1
f 41/2/2 42/2/2 43/2/2
f 43/2/2 42/2/2 44/2/2
f 45/2/2 46/2/2 47/2/2
f 47/2/2 46/2/2 48/2/2
f 49/5/2 50/5/2 51/5/2
f 51/5/2 50/5/2 52/5/2
f 53/3/2 54/3/2 55/3/2
f 55/3/2 54/3/2 56/3/2
f 57/6/2 58/6/2 59/6/2
f 59/6/2 58/6/2 60/6/2
f 60/6/2 58/6/2 61/6/2
f 62/6/2 63/6/2 65/6/2
f 63/6/2 64/6/2 65/6/2
f 65/6/2 64/6/2 66/6/2
f 68/4/2 69/4/2 70/4/2
f 68/4/2 70/4/2 71/4/2
f 71/4/2 70/4/2 72/4/2
f 68/4/2 71/4/2 73/4/2
f 72/4/2 70/4/2 74/4/2
f 74/4/2 70/4/2 75/4/2
f 67/3/2 68/3/2 76/3/2
f 68/4/2 73/4/2 77/4/2
f 76/3/2 68/3/2 77/3/2
f 73/4/2 74/4/2 77/4/2
f 74/4/2 75/4/2 77/4/2
f 77/4/2 75/4/2 78/4/2
f 79/2/2 80/2/2 83/2/2
f 83/2/2 80/2/2 84/2/2
f 81/2/2 82/2/2 85/2/2
f 85/2/2 82/2/2 86/2/2
f 89/5/3 88/5/3 87/5/3
f 90/5/3 88/5/3 89/5/3
f 93/3/3 92/3/3 91/3/3
f 94/3/3 92/3/3 93/3/3
f 95/3/3 92/3/3 94/3/3
f 96/3/3 92/3/3 95/3/3
f 97/3/3 93/3/3 91/3/3
f 97/1/3 94/1/3 93/1/3
f 98/1/3 94/1/3 97/1/3
f 99/1/3 96/1/3 95/1/3
f 100/3/3 92/3/3 96/3/3
f 100/1/3 96/1/3 99/1/3
f 101/3/3 99/3/3 98/3/3
f 101/3/3 98/3/3 97/3/3
f 101/3/3 100/3/3 99/3/3
f 101/3/3 97/3/3 91/3/3
f 102/3/3 92/3/3 100/3/3
f 102/3/3 100/3/3 101/3/3
f 105/3/3 104/3/3 103/3/3
f 106/3/3 104/3/3 105/3/3
f 111/6/3 108/6/3 107/6/3
f 112/6/3 108/6/3 111/6/3
f 113/6/3 110/6/3 109/6/3
f 114/6/3 110/6/3 113/6/3
f 118/2/3 116/2/3 115/2/3
f 119/2/3 118/2/3 117/2/3
f 120/2/3 116/2/3 118/2/3
f 120/2/3 118/2/3 119/2/3
f 126/2/3 122/2/3 121/2/3
f 127/2/3 124/2/3 123/2/3
f 128/2/3 124/2/3 127/2/3
f 129/2/3 126/2/3 125/2/3
f 130/2/3 122/2/3 126/2/3
f 130/2/3 126/2/3 129/2/3
f 133/2/3 132/2/3 131/2/3
f 134/2/3 132/2/3 133/2/3
f 135/6/4 136/6/4 139/6/4
f 139/6/4 136/6/4 140/6/4
f 137/6/4 138/6/4 141/6/4
f 141/6/4 138/6/4 142/6/4
f 143/2/4 144/2/4 148/2/4
f 145/2/4 146/2/4 149/2/4
f 149/2/4 146/2/4 150/2/4
f 147/2/4 148/2/4 151/2/4
f 148/2/4 144/2/4 152/2/4
f 151/2/4 148/2/4 152/2/4
f 153/2/4 154/2/4 156/2/4
f 155/2/4 156/2/4 157/2/4
f 156/2/4 154/2/4 158/2/4
f 157/2/4 156/2/4 158/2/4
f 159/4/4 160/4/4 161/4/4
f 161/4/4 160/4/4 162/4/4
f 159/4/4 161/4/4 163/4/4
f 163/4/4 161/4/4 164/4/4
f 162/4/4 160/4/4 165/4/4
f 165/4/4 160/4/4 166/4/4
f 167/2/4 168/2/4 169/2/4
f 169/2/4 168/2/4 170/2/4
f 173/6/5 172/6/5 171/6/5
f 174/6/5 172/6/5 173/6/5
f 175/6/5 173/6/5 171/6/5
f 175/7/5 174/7/5 173/7/5
f 176/6/5 172/6/5 174/6/5
f 176/7/5 174/7/5 175/7/5
f 177/6/5 175/6/5 171/6/5
f 177/6/5 176/6/5 175/6/5
f 178/6/5 172/6/5 176/6/5
f 178/6/5 176/6/5 177/6/5
f 181/2/5 180/2/5 179/2/5
f 182/2/5 180/2/5 181/2/5
f 185/3/5 184/3/5 183/3/5
f 187/3/5 185/3/5 183/3/5
f 187/3/5 186/3/5 185/3/5
f 188/3/5 186/3/5 187/3/5
f 189/3/5 187/3/5 183/3/5
f 190/3/5 187/3/5 189/3/5
f 191/3/5 186/3/5 188/3/5
f 192/3/5 186/3/5 191/3/5
f 193/4/5 190/4/5 189/4/5
f 194/4/5 192/4/5 191/4/5
f 195/4/5 193/4/5 189/4/5
f 195/4/5 194/4/5 193/4/5
f 196/4/5 194/4/5 195/4/5
f 198/4/5 194/4/5 196/4/5
f 199/4/5 198/4/5 197/4/5
f 200/4/5 192/4/5 194/4/5
f 200/4/5 198/4/5 199/4/5
f 200/4/5 194/4/5 198/4/5
f 203/5/5 202/5/5 201/5/5
f 204/5/5 202/5/5 203/5/5
f 207/2/5 206/2/5 205/2/5
f 208/2/5 206/2/5 207/2/5
f 212/2/5 210/2/5 209/2/5
f 212/2/5 211/2/5 210/2/5
f 213/2/5 211/2/5 212/2/5
f 216/2/5 215/2/5 214/2/5
f 217/2/5 215/2/5 216/2/5
f 220/2/5 219/2/5 218/2/5
f 221/2/5 219/2/5 220/2/5
f 222/5/6 223/5/6 224/5/6
f 224/5/6 223/5/6 225/5/6
f 226/2/6 227/2/6 228/2/6
f 228/2/6 227/2/6 229/2/6
f 230/2/6 231/2/6 233/2/6
f 231/2/6 232/2/6 233/2/6
f 233/2/6 232/2/6 234/2/6
f 235/3/6 236/3/6 237/3/6
f 235/3/6 237/3/6 239/3/6
f 237/3/6 238/3/6 239/3/6
f 239/3/6 238/3/6 240/3/6
f 235/3/6 239/3/6 241/3/6
f 241/3/6 239/3/6 242/3/6
f 240/3/6 238/3/6 243/3/6
f 243/3/6 238/3/6 244/3/6
f 241/4/6 242/4/6 245/4/6
f 243/4/6 244/4/6 246/4/6
f 241/4/6 245/4/6 247/4/6
f 245/4/6 246/4/6 247/4/6
f 247/4/6 246/4/6 248/4/6
f 248/4/6 246/4/6 250/4/6
f 249/4/6 250/4/6 251/4/6
f 246/4/6 244/4/6 252/4/6
f 251/4/6 250/4/6 252/4/6
f 250/4/6 246/4/6 252/4/6
f 253/6/6 254/6/6 255/6/6
f 255/6/6 254/6/6 256/6/6
f 253/6/6 255/6/6 257/6/6
f 255/7/6 256/7/6 257/7/6
f 256/6/6 254/6/6 258/6/6
f 257/7/6 256/7/6 258/7/6
f 253/6/6 257/6/6 259/6/6
f 257/6/6 258/6/6 259/6/6
f 258/6/6 254/6/6 260/6/6
f 259/6/6 258/6/6 260/6/6
f 261/2/6 262/2/6 263/2/6
f 263/2/6 262/2/6 264/2/6
