# MagicaVoxel @ ephtracy

# material
mtllib sapo.mtl
usemtl palette

# normals
vn -1 0 0
vn 1 0 0
vn 0 0 1
vn 0 0 -1
vn 0 -1 0
vn 0 1 0

# texcoords
vt 0.00195313 0.5
vt 0.744141 0.5
vt 0.892578 0.5
vt 0.896484 0.5
vt 0.900391 0.5
vt 0.994141 0.5

# verts
v -5 0 4
v -5 0 2
v -5 0 -2
v -5 0 -4
v -5 1 6
v -5 1 4
v -5 1 2
v -5 1 -2
v -5 1 -4
v -5 1 -6
v -5 2 6
v -5 2 5
v -5 3 6
v -5 3 5
v -5 3 -5
v -5 3 -6
v -5 4 6
v -5 4 4
v -5 4 -5
v -5 4 -6
v -5 5 2
v -5 5 1
v -5 5 -3
v -5 5 -4
v -5 6 6
v -5 6 2
v -5 6 1
v -5 6 -3
v -5 6 -4
v -5 6 -6
v -4 6 4
v -4 6 3
v -4 6 2
v -4 9 4
v -4 9 3
v -4 9 2
v 1 6 4
v 1 6 3
v 1 6 2
v 1 9 4
v 1 9 3
v 1 9 2
v 4 0 4
v 4 0 2
v 4 0 -2
v 4 0 -4
v 4 1 4
v 4 1 2
v 4 1 -2
v 4 1 -4
v -4 0 4
v -4 0 2
v -4 0 -2
v -4 0 -4
v -4 1 4
v -4 1 2
v -4 1 -2
v -4 1 -4
v -1 6 4
v -1 6 3
v -1 6 2
v -1 9 4
v -1 9 3
v -1 9 2
v 4 6 4
v 4 6 3
v 4 6 2
v 4 9 4
v 4 9 3
v 4 9 2
v 5 0 4
v 5 0 2
v 5 0 -2
v 5 0 -4
v 5 1 6
v 5 1 4
v 5 1 2
v 5 1 -2
v 5 1 -4
v 5 1 -6
v 5 2 6
v 5 2 5
v 5 3 6
v 5 3 5
v 5 3 -5
v 5 3 -6
v 5 4 6
v 5 4 4
v 5 4 -5
v 5 4 -6
v 5 5 2
v 5 5 1
v 5 5 -3
v 5 5 -4
v 5 6 6
v 5 6 2
v 5 6 1
v 5 6 -3
v 5 6 -4
v 5 6 -6
v -5 1 6
v -5 2 6
v -5 3 6
v -5 4 6
v -5 6 6
v -3 4 6
v -3 5 6
v -2 4 6
v -2 5 6
v -1 4 6
v -1 6 6
v 1 4 6
v 1 6 6
v 2 4 6
v 2 5 6
v 3 4 6
v 3 5 6
v 5 1 6
v 5 2 6
v 5 3 6
v 5 4 6
v 5 6 6
v -5 2 5
v -5 3 5
v -4 2 5
v -4 3 5
v 4 2 5
v 4 3 5
v 5 2 5
v 5 3 5
v -5 0 4
v -5 1 4
v -4 0 4
v -4 1 4
v -4 6 4
v -4 9 4
v -3 7 4
v -3 8 4
v -2 7 4
v -2 8 4
v -1 6 4
v -1 9 4
v 1 6 4
v 1 9 4
v 2 7 4
v 2 8 4
v 3 7 4
v 3 8 4
v 4 0 4
v 4 1 4
v 4 6 4
v 4 9 4
v 5 0 4
v 5 1 4
v -5 0 -2
v -5 1 -2
v -4 0 -2
v -4 1 -2
v 4 0 -2
v 4 1 -2
v 5 0 -2
v 5 1 -2
v -5 0 2
v -5 1 2
v -4 0 2
v -4 1 2
v -4 6 2
v -4 9 2
v -1 6 2
v -1 9 2
v 1 6 2
v 1 9 2
v 4 0 2
v 4 1 2
v 4 6 2
v 4 9 2
v 5 0 2
v 5 1 2
v -5 0 -4
v -5 1 -4
v -4 0 -4
v -4 1 -4
v 4 0 -4
v 4 1 -4
v 5 0 -4
v 5 1 -4
v -5 1 -6
v -5 3 -6
v -5 4 -6
v -5 6 -6
v -4 3 -6
v -4 4 -6
v -1 1 -6
v -1 6 -6
v 1 1 -6
v 1 6 -6
v 4 3 -6
v 4 4 -6
v 5 1 -6
v 5 3 -6
v 5 4 -6
v 5 6 -6
v -5 0 4
v -4 0 4
v 4 0 4
v 5 0 4
v -5 0 2
v -4 0 2
v 4 0 2
v 5 0 2
v -5 0 -2
v -4 0 -2
v 4 0 -2
v 5 0 -2
v -5 0 -4
v -4 0 -4
v 4 0 -4
v 5 0 -4
v -5 1 6
v 5 1 6
v -4 1 5
v -1 1 5
v 1 1 5
v 4 1 5
v -5 1 4
v -4 1 4
v 4 1 4
v 5 1 4
v -5 1 2
v -4 1 2
v 4 1 2
v 5 1 2
v -5 1 -2
v -4 1 -2
v 4 1 -2
v 5 1 -2
v -5 1 -4
v -4 1 -4
v 4 1 -4
v 5 1 -4
v -5 1 -6
v -1 1 -6
v 1 1 -6
v 5 1 -6
v -5 3 6
v 5 3 6
v -5 3 5
v -4 3 5
v 4 3 5
v 5 3 5
v -5 2 6
v 5 2 6
v -5 2 5
v -4 2 5
v 4 2 5
v 5 2 5
v -5 6 6
v -1 6 6
v 1 6 6
v 5 6 6
v -4 6 4
v -1 6 4
v 1 6 4
v 4 6 4
v -4 6 3
v -1 6 3
v 1 6 3
v 4 6 3
v -5 6 2
v -4 6 2
v -1 6 2
v 1 6 2
v 4 6 2
v 5 6 2
v -5 6 1
v -4 6 1
v 4 6 1
v 5 6 1
v -5 6 -3
v -4 6 -3
v 4 6 -3
v 5 6 -3
v -5 6 -4
v -4 6 -4
v 4 6 -4
v 5 6 -4
v -5 6 -6
v -1 6 -6
v 1 6 -6
v 5 6 -6
v -4 9 4
v -1 9 4
v 1 9 4
v 4 9 4
v -4 9 3
v -1 9 3
v 1 9 3
v 4 9 3
v -4 9 2
v -1 9 2
v 1 9 2
v 4 9 2

# faces
f 6/4/1 2/4/1 1/4/1
f 7/4/1 2/4/1 6/4/1
f 8/4/1 4/4/1 3/4/1
f 9/4/1 4/4/1 8/4/1
f 11/2/1 6/2/1 5/2/1
f 12/2/1 6/2/1 11/2/1
f 14/2/1 6/2/1 12/2/1
f 15/4/1 7/4/1 6/4/1
f 15/4/1 10/4/1 9/4/1
f 15/4/1 8/4/1 7/4/1
f 15/4/1 9/4/1 8/4/1
f 16/4/1 10/4/1 15/4/1
f 17/2/1 14/2/1 13/2/1
f 18/2/1 6/2/1 14/2/1
f 18/2/1 14/2/1 17/2/1
f 18/4/1 15/4/1 6/4/1
f 19/5/1 16/5/1 15/5/1
f 19/4/1 15/4/1 18/4/1
f 20/5/1 16/5/1 19/5/1
f 21/4/1 18/4/1 17/4/1
f 21/4/1 19/4/1 18/4/1
f 21/4/1 20/4/1 19/4/1
f 22/4/1 20/4/1 21/4/1
f 23/4/1 20/4/1 22/4/1
f 24/4/1 20/4/1 23/4/1
f 25/4/1 21/4/1 17/4/1
f 26/5/1 22/5/1 21/5/1
f 26/4/1 21/4/1 25/4/1
f 27/4/1 23/4/1 22/4/1
f 27/5/1 22/5/1 26/5/1
f 28/5/1 24/5/1 23/5/1
f 28/4/1 23/4/1 27/4/1
f 29/4/1 20/4/1 24/4/1
f 29/5/1 24/5/1 28/5/1
f 30/4/1 20/4/1 29/4/1
f 34/1/1 32/1/1 31/1/1
f 35/3/1 33/3/1 32/3/1
f 35/1/1 32/1/1 34/1/1
f 36/3/1 33/3/1 35/3/1
f 40/1/1 38/1/1 37/1/1
f 41/3/1 39/3/1 38/3/1
f 41/1/1 38/1/1 40/1/1
f 42/3/1 39/3/1 41/3/1
f 47/4/1 44/4/1 43/4/1
f 48/4/1 44/4/1 47/4/1
f 49/4/1 46/4/1 45/4/1
f 50/4/1 46/4/1 49/4/1
f 51/4/2 52/4/2 55/4/2
f 55/4/2 52/4/2 56/4/2
f 53/4/2 54/4/2 57/4/2
f 57/4/2 54/4/2 58/4/2
f 59/1/2 60/1/2 62/1/2
f 60/3/2 61/3/2 63/3/2
f 62/1/2 60/1/2 63/1/2
f 63/3/2 61/3/2 64/3/2
f 65/1/2 66/1/2 68/1/2
f 66/3/2 67/3/2 69/3/2
f 68/1/2 66/1/2 69/1/2
f 69/3/2 67/3/2 70/3/2
f 71/4/2 72/4/2 76/4/2
f 76/4/2 72/4/2 77/4/2
f 73/4/2 74/4/2 78/4/2
f 78/4/2 74/4/2 79/4/2
f 75/2/2 76/2/2 81/2/2
f 81/2/2 76/2/2 82/2/2
f 82/2/2 76/2/2 84/2/2
f 76/4/2 77/4/2 85/4/2
f 79/4/2 80/4/2 85/4/2
f 77/4/2 78/4/2 85/4/2
f 78/4/2 79/4/2 85/4/2
f 85/4/2 80/4/2 86/4/2
f 83/2/2 84/2/2 87/2/2
f 84/2/2 76/2/2 88/2/2
f 87/2/2 84/2/2 88/2/2
f 76/4/2 85/4/2 88/4/2
f 85/5/2 86/5/2 89/5/2
f 88/4/2 85/4/2 89/4/2
f 89/5/2 86/5/2 90/5/2
f 87/4/2 88/4/2 91/4/2
f 88/4/2 89/4/2 91/4/2
f 89/4/2 90/4/2 91/4/2
f 91/4/2 90/4/2 92/4/2
f 92/4/2 90/4/2 93/4/2
f 93/4/2 90/4/2 94/4/2
f 87/4/2 91/4/2 95/4/2
f 91/5/2 92/5/2 96/5/2
f 95/4/2 91/4/2 96/4/2
f 92/4/2 93/4/2 97/4/2
f 96/5/2 92/5/2 97/5/2
f 93/5/2 94/5/2 98/5/2
f 97/4/2 93/4/2 98/4/2
f 94/4/2 90/4/2 99/4/2
f 98/5/2 94/5/2 99/5/2
f 99/4/2 90/4/2 100/4/2
f 106/2/3 104/2/3 103/2/3
f 106/4/3 105/4/3 104/4/3
f 107/4/3 105/4/3 106/4/3
f 108/2/3 106/2/3 103/2/3
f 108/5/3 107/5/3 106/5/3
f 109/4/3 105/4/3 107/4/3
f 109/5/3 107/5/3 108/5/3
f 110/2/3 108/2/3 103/2/3
f 110/4/3 109/4/3 108/4/3
f 111/4/3 105/4/3 109/4/3
f 111/4/3 109/4/3 110/4/3
f 112/2/3 110/2/3 103/2/3
f 112/5/3 111/5/3 110/5/3
f 113/5/3 111/5/3 112/5/3
f 114/2/3 112/2/3 103/2/3
f 114/4/3 113/4/3 112/4/3
f 115/4/3 113/4/3 114/4/3
f 116/2/3 114/2/3 103/2/3
f 116/5/3 115/5/3 114/5/3
f 117/4/3 113/4/3 115/4/3
f 117/5/3 115/5/3 116/5/3
f 118/2/3 102/2/3 101/2/3
f 119/2/3 102/2/3 118/2/3
f 120/2/3 116/2/3 103/2/3
f 121/4/3 117/4/3 116/4/3
f 121/2/3 116/2/3 120/2/3
f 122/4/3 113/4/3 117/4/3
f 122/4/3 117/4/3 121/4/3
f 125/2/3 124/2/3 123/2/3
f 126/2/3 124/2/3 125/2/3
f 127/4/3 126/4/3 125/4/3
f 128/4/3 126/4/3 127/4/3
f 129/2/3 128/2/3 127/2/3
f 130/2/3 128/2/3 129/2/3
f 133/4/3 132/4/3 131/4/3
f 134/4/3 132/4/3 133/4/3
f 137/1/3 136/1/3 135/1/3
f 138/1/3 136/1/3 137/1/3
f 139/1/3 137/1/3 135/1/3
f 139/6/3 138/6/3 137/6/3
f 140/1/3 136/1/3 138/1/3
f 140/6/3 138/6/3 139/6/3
f 141/1/3 139/1/3 135/1/3
f 141/1/3 140/1/3 139/1/3
f 142/1/3 136/1/3 140/1/3
f 142/1/3 140/1/3 141/1/3
f 145/1/3 144/1/3 143/1/3
f 146/1/3 144/1/3 145/1/3
f 147/1/3 145/1/3 143/1/3
f 147/6/3 146/6/3 145/6/3
f 148/1/3 144/1/3 146/1/3
f 148/6/3 146/6/3 147/6/3
f 151/1/3 147/1/3 143/1/3
f 151/1/3 148/1/3 147/1/3
f 152/1/3 144/1/3 148/1/3
f 152/1/3 148/1/3 151/1/3
f 153/4/3 150/4/3 149/4/3
f 154/4/3 150/4/3 153/4/3
f 157/4/3 156/4/3 155/4/3
f 158/4/3 156/4/3 157/4/3
f 161/4/3 160/4/3 159/4/3
f 162/4/3 160/4/3 161/4/3
f 163/4/4 164/4/4 165/4/4
f 165/4/4 164/4/4 166/4/4
f 167/3/4 168/3/4 169/3/4
f 169/3/4 168/3/4 170/3/4
f 171/3/4 172/3/4 175/3/4
f 175/3/4 172/3/4 176/3/4
f 173/4/4 174/4/4 177/4/4
f 177/4/4 174/4/4 178/4/4
f 179/4/4 180/4/4 181/4/4
f 181/4/4 180/4/4 182/4/4
f 183/4/4 184/4/4 185/4/4
f 185/4/4 184/4/4 186/4/4
f 187/4/4 188/4/4 191/4/4
f 188/5/4 189/5/4 191/5/4
f 189/4/4 190/4/4 192/4/4
f 191/5/4 189/5/4 192/5/4
f 187/4/4 191/4/4 193/4/4
f 191/4/4 192/4/4 193/4/4
f 192/4/4 190/4/4 194/4/4
f 193/4/4 192/4/4 194/4/4
f 193/5/4 194/5/4 195/5/4
f 195/5/4 194/5/4 196/5/4
f 195/4/4 196/4/4 197/4/4
f 197/4/4 196/4/4 198/4/4
f 195/4/4 197/4/4 199/4/4
f 197/5/4 198/5/4 200/5/4
f 199/4/4 197/4/4 200/4/4
f 198/4/4 196/4/4 201/4/4
f 200/5/4 198/5/4 201/5/4
f 201/4/4 196/4/4 202/4/4
f 207/4/5 204/4/5 203/4/5
f 208/4/5 204/4/5 207/4/5
f 209/4/5 206/4/5 205/4/5
f 210/4/5 206/4/5 209/4/5
f 215/4/5 212/4/5 211/4/5
f 216/4/5 212/4/5 215/4/5
f 217/4/5 214/4/5 213/4/5
f 218/4/5 214/4/5 217/4/5
f 221/2/5 220/2/5 219/2/5
f 222/2/5 220/2/5 221/2/5
f 223/2/5 220/2/5 222/2/5
f 224/2/5 220/2/5 223/2/5
f 225/2/5 221/2/5 219/2/5
f 226/4/5 222/4/5 221/4/5
f 226/2/5 221/2/5 225/2/5
f 227/2/5 220/2/5 224/2/5
f 227/4/5 224/4/5 223/4/5
f 228/2/5 220/2/5 227/2/5
f 230/4/5 222/4/5 226/4/5
f 231/4/5 227/4/5 223/4/5
f 233/4/5 230/4/5 229/4/5
f 234/4/5 222/4/5 230/4/5
f 234/4/5 230/4/5 233/4/5
f 235/4/5 232/4/5 231/4/5
f 235/4/5 231/4/5 223/4/5
f 236/4/5 232/4/5 235/4/5
f 238/4/5 222/4/5 234/4/5
f 239/4/5 235/4/5 223/4/5
f 241/4/5 238/4/5 237/4/5
f 242/5/5 223/5/5 222/5/5
f 242/4/5 238/4/5 241/4/5
f 242/4/5 222/4/5 238/4/5
f 243/4/5 240/4/5 239/4/5
f 243/5/5 223/5/5 242/5/5
f 243/4/5 239/4/5 223/4/5
f 244/4/5 240/4/5 243/4/5
f 247/2/5 246/2/5 245/2/5
f 248/2/5 246/2/5 247/2/5
f 249/2/5 246/2/5 248/2/5
f 250/2/5 246/2/5 249/2/5
f 251/2/6 252/2/6 253/2/6
f 253/2/6 252/2/6 254/2/6
f 254/2/6 252/2/6 255/2/6
f 255/2/6 252/2/6 256/2/6
f 257/4/6 258/4/6 261/4/6
f 258/5/6 259/5/6 262/5/6
f 261/4/6 258/4/6 262/4/6
f 259/4/6 260/4/6 263/4/6
f 262/5/6 259/5/6 263/5/6
f 263/4/6 260/4/6 264/4/6
f 257/4/6 261/4/6 265/4/6
f 262/5/6 263/5/6 266/5/6
f 266/5/6 263/5/6 267/5/6
f 264/4/6 260/4/6 268/4/6
f 257/4/6 265/4/6 269/4/6
f 269/4/6 265/4/6 270/4/6
f 266/5/6 267/5/6 271/5/6
f 271/5/6 267/5/6 272/5/6
f 268/4/6 260/4/6 273/4/6
f 273/4/6 260/4/6 274/4/6
f 269/5/6 270/5/6 275/5/6
f 270/4/6 271/4/6 276/4/6
f 275/5/6 270/5/6 276/5/6
f 272/4/6 273/4/6 277/4/6
f 273/5/6 274/5/6 277/5/6
f 277/5/6 274/5/6 278/5/6
f 275/4/6 276/4/6 279/4/6
f 276/4/6 271/4/6 280/4/6
f 279/4/6 276/4/6 280/4/6
f 272/4/6 277/4/6 281/4/6
f 277/4/6 278/4/6 281/4/6
f 281/4/6 278/4/6 282/4/6
f 279/5/6 280/5/6 283/5/6
f 280/4/6 271/4/6 284/4/6
f 283/5/6 280/5/6 284/5/6
f 272/4/6 281/4/6 285/4/6
f 281/5/6 282/5/6 285/5/6
f 285/5/6 282/5/6 286/5/6
f 283/4/6 284/4/6 287/4/6
f 271/5/6 272/5/6 288/5/6
f 287/4/6 284/4/6 288/4/6
f 284/4/6 271/4/6 288/4/6
f 285/4/6 286/4/6 289/4/6
f 288/5/6 272/5/6 289/5/6
f 272/4/6 285/4/6 289/4/6
f 289/4/6 286/4/6 290/4/6
f 291/1/6 292/1/6 295/1/6
f 295/1/6 292/1/6 296/1/6
f 293/1/6 294/1/6 297/1/6
f 297/1/6 294/1/6 298/1/6
f 295/3/6 296/3/6 299/3/6
f 299/3/6 296/3/6 300/3/6
f 297/3/6 298/3/6 301/3/6
f 301/3/6 298/3/6 302/3/6
