# MagicaVoxel @ ephtracy

# material
mtllib EstradaSimples.mtl
usemtl palette

# normals
vn -1 0 0
vn 1 0 0
vn 0 0 1
vn 0 0 -1
vn 0 -1 0
vn 0 1 0

# texcoords
vt 0.00195313 0.5
vt 0.974609 0.5
vt 0.978516 0.5

# verts
v -10 0 10
v -10 0 -10
v -10 19 10
v -10 19 9
v -10 19 -2
v -10 19 -7
v -10 19 -9
v -10 19 -10
v -10 20 10
v -10 20 9
v -10 20 -2
v -10 20 -7
v -10 20 -9
v -10 20 -10
v 10 0 10
v 10 0 -10
v 10 19 10
v 10 19 9
v 10 19 2
v 10 19 -1
v 10 19 -9
v 10 19 -10
v 10 20 10
v 10 20 9
v 10 20 2
v 10 20 -1
v 10 20 -9
v 10 20 -10
v -10 0 10
v -10 19 10
v -10 20 10
v 10 0 10
v 10 19 10
v 10 20 10
v -10 0 -10
v -10 19 -10
v -10 20 -10
v 10 0 -10
v 10 19 -10
v 10 20 -10
v -10 0 10
v 10 0 10
v -10 0 -10
v 10 0 -10
v -10 20 10
v 10 20 10
v -10 20 9
v -9 20 9
v -6 20 9
v 10 20 9
v -9 20 8
v -6 20 8
v 7 20 8
v 9 20 8
v 6 20 7
v 7 20 7
v -8 20 6
v -4 20 6
v -1 20 6
v 3 20 6
v 6 20 5
v 9 20 5
v -8 20 4
v -6 20 4
v -1 20 4
v 3 20 4
v -6 20 2
v -4 20 2
v 8 20 2
v 10 20 2
v -2 20 1
v 0 20 1
v 4 20 1
v 6 20 1
v -2 20 -1
v 0 20 -1
v 2 20 -1
v 4 20 -1
v 6 20 -1
v 7 20 -1
v 8 20 -1
v 10 20 -1
v -10 20 -2
v -8 20 -2
v -5 20 -2
v -2 20 -2
v 2 20 -3
v 7 20 -3
v -6 20 -4
v -5 20 -4
v -2 20 -4
v -1 20 -4
v -6 20 -6
v -1 20 -6
v 3 20 -6
v 8 20 -6
v -10 20 -7
v -8 20 -7
v -3 20 -8
v -1 20 -8
v 3 20 -8
v 8 20 -8
v -10 20 -9
v -3 20 -9
v -1 20 -9
v 10 20 -9
v -10 20 -10
v 10 20 -10

# faces
f 3/2/1 2/2/1 1/2/1
f 4/2/1 2/2/1 3/2/1
f 5/2/1 2/2/1 4/2/1
f 6/2/1 2/2/1 5/2/1
f 7/2/1 2/2/1 6/2/1
f 8/2/1 2/2/1 7/2/1
f 9/1/1 4/1/1 3/1/1
f 10/2/1 5/2/1 4/2/1
f 10/1/1 4/1/1 9/1/1
f 11/3/1 6/3/1 5/3/1
f 11/2/1 5/2/1 10/2/1
f 12/2/1 7/2/1 6/2/1
f 12/3/1 6/3/1 11/3/1
f 13/1/1 8/1/1 7/1/1
f 13/2/1 7/2/1 12/2/1
f 14/1/1 8/1/1 13/1/1
f 15/2/2 16/2/2 17/2/2
f 17/2/2 16/2/2 18/2/2
f 18/2/2 16/2/2 19/2/2
f 19/2/2 16/2/2 20/2/2
f 20/2/2 16/2/2 21/2/2
f 21/2/2 16/2/2 22/2/2
f 17/1/2 18/1/2 23/1/2
f 18/2/2 19/2/2 24/2/2
f 23/1/2 18/1/2 24/1/2
f 19/3/2 20/3/2 25/3/2
f 24/2/2 19/2/2 25/2/2
f 20/2/2 21/2/2 26/2/2
f 25/3/2 20/3/2 26/3/2
f 21/1/2 22/1/2 27/1/2
f 26/2/2 21/2/2 27/2/2
f 27/1/2 22/1/2 28/1/2
f 32/2/3 30/2/3 29/2/3
f 33/1/3 31/1/3 30/1/3
f 33/2/3 30/2/3 32/2/3
f 34/1/3 31/1/3 33/1/3
f 35/2/4 36/2/4 38/2/4
f 36/1/4 37/1/4 39/1/4
f 38/2/4 36/2/4 39/2/4
f 39/1/4 37/1/4 40/1/4
f 43/2/5 42/2/5 41/2/5
f 44/2/5 42/2/5 43/2/5
f 45/1/6 46/1/6 47/1/6
f 47/1/6 46/1/6 48/1/6
f 48/1/6 46/1/6 49/1/6
f 49/1/6 46/1/6 50/1/6
f 47/2/6 48/2/6 51/2/6
f 48/3/6 49/3/6 51/3/6
f 49/2/6 50/2/6 52/2/6
f 51/3/6 49/3/6 52/3/6
f 52/2/6 50/2/6 53/2/6
f 53/2/6 50/2/6 54/2/6
f 51/2/6 52/2/6 55/2/6
f 52/2/6 53/2/6 55/2/6
f 53/3/6 54/3/6 56/3/6
f 55/2/6 53/2/6 56/2/6
f 51/2/6 55/2/6 57/2/6
f 57/2/6 55/2/6 58/2/6
f 58/2/6 55/2/6 59/2/6
f 59/2/6 55/2/6 60/2/6
f 55/3/6 56/3/6 61/3/6
f 60/2/6 55/2/6 61/2/6
f 54/2/6 50/2/6 62/2/6
f 61/3/6 56/3/6 62/3/6
f 56/3/6 54/3/6 62/3/6
f 51/2/6 57/2/6 63/2/6
f 57/3/6 58/3/6 63/3/6
f 63/3/6 58/3/6 64/3/6
f 58/2/6 59/2/6 65/2/6
f 59/3/6 60/3/6 65/3/6
f 60/2/6 61/2/6 66/2/6
f 65/3/6 60/3/6 66/3/6
f 61/2/6 62/2/6 66/2/6
f 64/3/6 58/3/6 67/3/6
f 63/2/6 64/2/6 67/2/6
f 58/2/6 65/2/6 68/2/6
f 67/3/6 58/3/6 68/3/6
f 65/2/6 66/2/6 68/2/6
f 66/2/6 62/2/6 69/2/6
f 68/2/6 66/2/6 69/2/6
f 62/2/6 50/2/6 70/2/6
f 69/2/6 62/2/6 70/2/6
f 67/2/6 68/2/6 71/2/6
f 68/2/6 69/2/6 71/2/6
f 71/2/6 69/2/6 72/2/6
f 72/2/6 69/2/6 73/2/6
f 73/2/6 69/2/6 74/2/6
f 67/2/6 71/2/6 75/2/6
f 71/3/6 72/3/6 75/3/6
f 72/2/6 73/2/6 76/2/6
f 75/3/6 72/3/6 76/3/6
f 76/2/6 73/2/6 77/2/6
f 73/3/6 74/3/6 78/3/6
f 77/2/6 73/2/6 78/2/6
f 74/2/6 69/2/6 79/2/6
f 78/3/6 74/3/6 79/3/6
f 79/2/6 69/2/6 80/2/6
f 69/3/6 70/3/6 81/3/6
f 80/2/6 69/2/6 81/2/6
f 81/3/6 70/3/6 82/3/6
f 47/2/6 51/2/6 83/2/6
f 63/2/6 67/2/6 83/2/6
f 51/2/6 63/2/6 83/2/6
f 76/2/6 77/2/6 83/2/6
f 67/2/6 75/2/6 83/2/6
f 75/2/6 76/2/6 83/2/6
f 83/2/6 77/2/6 84/2/6
f 84/2/6 77/2/6 85/2/6
f 85/2/6 77/2/6 86/2/6
f 79/3/6 80/3/6 87/3/6
f 86/2/6 77/2/6 87/2/6
f 77/3/6 78/3/6 87/3/6
f 78/3/6 79/3/6 87/3/6
f 81/2/6 82/2/6 88/2/6
f 87/3/6 80/3/6 88/3/6
f 80/2/6 81/2/6 88/2/6
f 84/2/6 85/2/6 89/2/6
f 85/3/6 86/3/6 90/3/6
f 89/2/6 85/2/6 90/2/6
f 86/2/6 87/2/6 91/2/6
f 90/3/6 86/3/6 91/3/6
f 87/2/6 88/2/6 91/2/6
f 91/2/6 88/2/6 92/2/6
f 89/3/6 90/3/6 93/3/6
f 84/2/6 89/2/6 93/2/6
f 91/3/6 92/3/6 93/3/6
f 90/3/6 91/3/6 93/3/6
f 92/2/6 88/2/6 94/2/6
f 93/3/6 92/3/6 94/3/6
f 94/2/6 88/2/6 95/2/6
f 88/2/6 82/2/6 96/2/6
f 95/2/6 88/2/6 96/2/6
f 83/3/6 84/3/6 97/3/6
f 84/2/6 93/2/6 98/2/6
f 97/3/6 84/3/6 98/3/6
f 94/2/6 95/2/6 98/2/6
f 93/2/6 94/2/6 98/2/6
f 97/2/6 98/2/6 99/2/6
f 98/2/6 95/2/6 99/2/6
f 99/2/6 95/2/6 100/2/6
f 95/3/6 96/3/6 101/3/6
f 100/2/6 95/2/6 101/2/6
f 96/2/6 82/2/6 102/2/6
f 101/3/6 96/3/6 102/3/6
f 97/2/6 99/2/6 103/2/6
f 99/3/6 100/3/6 104/3/6
f 103/2/6 99/2/6 104/2/6
f 100/2/6 101/2/6 105/2/6
f 104/3/6 100/3/6 105/3/6
f 101/2/6 102/2/6 105/2/6
f 102/2/6 82/2/6 106/2/6
f 105/2/6 102/2/6 106/2/6
f 103/1/6 104/1/6 107/1/6
f 104/1/6 105/1/6 107/1/6
f 105/1/6 106/1/6 107/1/6
f 107/1/6 106/1/6 108/1/6
