# MagicaVoxel @ ephtracy

# material
mtllib trilho.mtl
usemtl palette

# normals
vn -1 0 0
vn 1 0 0
vn 0 0 1
vn 0 0 -1
vn 0 -1 0
vn 0 1 0

# texcoords
vt 0.533203 0.5
vt 0.537109 0.5
vt 0.853516 0.5
vt 0.970703 0.5
vt 0.974609 0.5
vt 0.978516 0.5
vt 0.982422 0.5

# verts
v -10 0 30
v -10 0 -30
v -10 18 11
v -10 18 10
v -10 18 -10
v -10 18 -11
v -10 19 12
v -10 19 11
v -10 19 7
v -10 19 5
v -10 19 -5
v -10 19 -7
v -10 19 -11
v -10 19 -12
v -10 20 30
v -10 20 12
v -10 20 10
v -10 20 7
v -10 20 5
v -10 20 -5
v -10 20 -7
v -10 20 -10
v -10 20 -12
v -10 20 -30
v -1 18 10
v -1 18 7
v -1 18 5
v -1 18 3
v -1 18 1
v -1 18 -1
v -1 18 -3
v -1 18 -5
v -1 18 -7
v -1 18 -10
v -1 19 10
v -1 19 7
v -1 19 5
v -1 19 3
v -1 19 1
v -1 19 -1
v -1 19 -3
v -1 19 -5
v -1 19 -7
v -1 19 -10
v 1 18 10
v 1 18 9
v 1 18 7
v 1 18 5
v 1 18 3
v 1 18 1
v 1 18 -1
v 1 18 -3
v 1 18 -5
v 1 18 -7
v 1 18 -9
v 1 18 -10
v 1 19 10
v 1 19 9
v 1 19 7
v 1 19 5
v 1 19 3
v 1 19 1
v 1 19 -1
v 1 19 -3
v 1 19 -5
v 1 19 -7
v 1 19 -9
v 1 19 -10
v 10 0 30
v 10 0 -30
v 10 17 4
v 10 17 2
v 10 18 11
v 10 18 10
v 10 18 4
v 10 18 2
v 10 18 -10
v 10 18 -11
v 10 19 12
v 10 19 11
v 10 19 7
v 10 19 5
v 10 19 -5
v 10 19 -7
v 10 19 -11
v 10 19 -12
v 10 20 30
v 10 20 12
v 10 20 10
v 10 20 7
v 10 20 5
v 10 20 -5
v 10 20 -7
v 10 20 -10
v 10 20 -12
v 10 20 -30
v -10 0 30
v -10 20 30
v 10 0 30
v 10 20 30
v -10 19 7
v -10 20 7
v -1 19 7
v 0 19 7
v 1 19 7
v 10 19 7
v 10 20 7
v -10 19 -5
v -10 20 -5
v -1 19 -5
v 0 19 -5
v 1 19 -5
v 10 19 -5
v 10 20 -5
v -10 18 -10
v -10 20 -10
v -8 18 -10
v -6 18 -10
v -1 18 -10
v -1 19 -10
v 1 18 -10
v 1 19 -10
v 3 18 -10
v 6 18 -10
v 10 18 -10
v 10 20 -10
v -10 18 10
v -10 20 10
v -1 18 10
v -1 19 10
v 1 18 10
v 1 19 10
v 10 18 10
v 10 20 10
v -10 19 5
v -10 20 5
v -1 19 5
v 0 19 5
v 1 19 5
v 10 19 5
v 10 20 5
v -10 19 -7
v -10 20 -7
v -1 19 -7
v 0 19 -7
v 1 19 -7
v 10 19 -7
v 10 20 -7
v -10 0 -30
v -10 20 -30
v 10 0 -30
v 10 20 -30
v -10 0 30
v 10 0 30
v -10 0 -30
v 10 0 -30
v -10 19 7
v -1 19 7
v 1 19 7
v 10 19 7
v -10 19 5
v -1 19 5
v 1 19 5
v 10 19 5
v -10 19 -5
v -1 19 -5
v 1 19 -5
v 10 19 -5
v -10 19 -7
v -1 19 -7
v 1 19 -7
v 10 19 -7
v -10 18 10
v -1 18 10
v 1 18 10
v 10 18 10
v -9 18 9
v -7 18 9
v 1 18 9
v 2 18 8
v 4 18 8
v -9 18 7
v -7 18 7
v -1 18 7
v 1 18 7
v 6 18 7
v 8 18 7
v -6 18 6
v -4 18 6
v 2 18 6
v 4 18 6
v -1 18 5
v 1 18 5
v 6 18 5
v 8 18 5
v -6 18 4
v -4 18 4
v 4 18 4
v 6 18 4
v 8 18 4
v 10 18 4
v -1 18 3
v 1 18 3
v -8 18 2
v -6 18 2
v 4 18 2
v 6 18 2
v 8 18 2
v 10 18 2
v -1 18 1
v 1 18 1
v -8 18 -0
v -6 18 -0
v 5 18 -0
v 7 18 -0
v -5 18 -1
v -3 18 -1
v -1 18 -1
v 1 18 -1
v -5 18 -3
v -3 18 -3
v -1 18 -3
v 1 18 -3
v 5 18 -3
v 7 18 -3
v -8 18 -4
v -6 18 -4
v 3 18 -4
v 5 18 -4
v 8 18 -4
v 9 18 -4
v -1 18 -5
v 1 18 -5
v -8 18 -6
v -6 18 -6
v 3 18 -6
v 5 18 -6
v 8 18 -6
v 9 18 -6
v -5 18 -7
v -3 18 -7
v -1 18 -7
v 1 18 -7
v 7 18 -7
v 9 18 -7
v -8 18 -8
v -6 18 -8
v 3 18 -8
v 6 18 -8
v -5 18 -9
v -3 18 -9
v 1 18 -9
v 7 18 -9
v 9 18 -9
v -10 18 -10
v -8 18 -10
v -6 18 -10
v -1 18 -10
v 1 18 -10
v 3 18 -10
v 6 18 -10
v 10 18 -10
v -1 19 10
v 1 19 10
v 0 19 9
v 1 19 9
v -1 19 7
v 0 19 7
v 1 19 7
v -1 19 5
v 0 19 5
v 1 19 5
v -1 19 3
v 0 19 3
v 1 19 3
v -1 19 1
v 0 19 1
v 1 19 1
v -1 19 -1
v 0 19 -1
v 1 19 -1
v -1 19 -3
v 0 19 -3
v 1 19 -3
v -1 19 -5
v 0 19 -5
v 1 19 -5
v -1 19 -7
v 0 19 -7
v 1 19 -7
v 0 19 -9
v 1 19 -9
v -1 19 -10
v 1 19 -10
v -10 20 30
v 10 20 30
v -8 20 27
v -4 20 27
v 4 20 27
v 8 20 27
v -8 20 24
v -4 20 24
v 4 20 24
v 8 20 24
v -2 20 23
v 2 20 23
v -2 20 20
v 2 20 20
v -7 20 19
v -4 20 19
v 4 20 19
v 7 20 19
v -2 20 16
v 2 20 16
v -7 20 15
v -4 20 15
v 4 20 15
v 7 20 15
v -2 20 13
v 2 20 13
v -10 20 12
v 10 20 12
v -10 20 10
v 10 20 10
v -10 20 7
v 10 20 7
v -10 20 5
v 10 20 5
v -10 20 -5
v 10 20 -5
v -10 20 -7
v 10 20 -7
v -10 20 -10
v 10 20 -10
v -10 20 -12
v 10 20 -12
v -2 20 -13
v 2 20 -13
v -7 20 -15
v -4 20 -15
v 4 20 -15
v 7 20 -15
v -2 20 -16
v 2 20 -16
v -7 20 -19
v -4 20 -19
v 4 20 -19
v 7 20 -19
v -2 20 -20
v 2 20 -20
v -2 20 -23
v 2 20 -23
v -8 20 -24
v -4 20 -24
v 4 20 -24
v 8 20 -24
v -8 20 -27
v -4 20 -27
v 4 20 -27
v 8 20 -27
v -10 20 -30
v 10 20 -30

# faces
f 3/5/1 2/5/1 1/5/1
f 4/5/1 2/5/1 3/5/1
f 5/5/1 2/5/1 4/5/1
f 6/5/1 2/5/1 5/5/1
f 7/5/1 3/5/1 1/5/1
f 8/3/1 4/3/1 3/3/1
f 8/5/1 3/5/1 7/5/1
f 13/5/1 2/5/1 6/5/1
f 13/3/1 6/3/1 5/3/1
f 14/5/1 2/5/1 13/5/1
f 15/5/1 7/5/1 1/5/1
f 16/3/1 8/3/1 7/3/1
f 16/5/1 7/5/1 15/5/1
f 17/3/1 4/3/1 8/3/1
f 17/3/1 8/3/1 16/3/1
f 18/7/1 10/7/1 9/7/1
f 19/7/1 10/7/1 18/7/1
f 20/7/1 12/7/1 11/7/1
f 21/7/1 12/7/1 20/7/1
f 22/3/1 13/3/1 5/3/1
f 22/3/1 14/3/1 13/3/1
f 23/5/1 2/5/1 14/5/1
f 23/3/1 14/3/1 22/3/1
f 24/5/1 2/5/1 23/5/1
f 35/2/1 26/2/1 25/2/1
f 36/1/1 27/1/1 26/1/1
f 36/2/1 26/2/1 35/2/1
f 37/2/1 28/2/1 27/2/1
f 37/1/1 27/1/1 36/1/1
f 38/1/1 29/1/1 28/1/1
f 38/2/1 28/2/1 37/2/1
f 39/2/1 30/2/1 29/2/1
f 39/1/1 29/1/1 38/1/1
f 40/1/1 31/1/1 30/1/1
f 40/2/1 30/2/1 39/2/1
f 41/2/1 32/2/1 31/2/1
f 41/1/1 31/1/1 40/1/1
f 42/1/1 33/1/1 32/1/1
f 42/2/1 32/2/1 41/2/1
f 43/2/1 34/2/1 33/2/1
f 43/1/1 33/1/1 42/1/1
f 44/2/1 34/2/1 43/2/1
f 45/2/2 46/2/2 57/2/2
f 46/1/2 47/1/2 58/1/2
f 57/2/2 46/2/2 58/2/2
f 47/2/2 48/2/2 59/2/2
f 58/1/2 47/1/2 59/1/2
f 48/1/2 49/1/2 60/1/2
f 59/2/2 48/2/2 60/2/2
f 49/2/2 50/2/2 61/2/2
f 60/1/2 49/1/2 61/1/2
f 50/1/2 51/1/2 62/1/2
f 61/2/2 50/2/2 62/2/2
f 51/2/2 52/2/2 63/2/2
f 62/1/2 51/1/2 63/1/2
f 52/1/2 53/1/2 64/1/2
f 63/2/2 52/2/2 64/2/2
f 53/2/2 54/2/2 65/2/2
f 64/1/2 53/1/2 65/1/2
f 54/1/2 55/1/2 66/1/2
f 65/2/2 54/2/2 66/2/2
f 55/2/2 56/2/2 67/2/2
f 66/1/2 55/1/2 67/1/2
f 67/2/2 56/2/2 68/2/2
f 69/5/2 70/5/2 71/5/2
f 71/5/2 70/5/2 72/5/2
f 69/5/2 71/5/2 73/5/2
f 73/5/2 71/5/2 74/5/2
f 71/6/2 72/6/2 75/6/2
f 74/5/2 71/5/2 75/5/2
f 72/5/2 70/5/2 76/5/2
f 75/6/2 72/6/2 76/6/2
f 76/5/2 70/5/2 77/5/2
f 77/5/2 70/5/2 78/5/2
f 69/5/2 73/5/2 79/5/2
f 73/3/2 74/3/2 80/3/2
f 79/5/2 73/5/2 80/5/2
f 78/5/2 70/5/2 85/5/2
f 77/3/2 78/3/2 85/3/2
f 85/5/2 70/5/2 86/5/2
f 69/5/2 79/5/2 87/5/2
f 79/3/2 80/3/2 88/3/2
f 87/5/2 79/5/2 88/5/2
f 80/3/2 74/3/2 89/3/2
f 88/3/2 80/3/2 89/3/2
f 81/7/2 82/7/2 90/7/2
f 90/7/2 82/7/2 91/7/2
f 83/7/2 84/7/2 92/7/2
f 92/7/2 84/7/2 93/7/2
f 77/3/2 85/3/2 94/3/2
f 85/3/2 86/3/2 94/3/2
f 86/5/2 70/5/2 95/5/2
f 94/3/2 86/3/2 95/3/2
f 95/5/2 70/5/2 96/5/2
f 99/5/3 98/5/3 97/5/3
f 100/5/3 98/5/3 99/5/3
f 103/7/3 102/7/3 101/7/3
f 104/7/3 102/7/3 103/7/3
f 105/7/3 102/7/3 104/7/3
f 106/7/3 102/7/3 105/7/3
f 107/7/3 102/7/3 106/7/3
f 110/7/3 109/7/3 108/7/3
f 111/7/3 109/7/3 110/7/3
f 112/7/3 109/7/3 111/7/3
f 113/7/3 109/7/3 112/7/3
f 114/7/3 109/7/3 113/7/3
f 117/3/3 116/3/3 115/3/3
f 118/3/3 116/3/3 117/3/3
f 119/3/3 116/3/3 118/3/3
f 120/3/3 116/3/3 119/3/3
f 122/3/3 116/3/3 120/3/3
f 123/3/3 122/3/3 121/3/3
f 124/3/3 122/3/3 123/3/3
f 125/3/3 122/3/3 124/3/3
f 126/3/3 116/3/3 122/3/3
f 126/3/3 122/3/3 125/3/3
f 127/3/4 128/3/4 129/3/4
f 129/3/4 128/3/4 130/3/4
f 130/3/4 128/3/4 132/3/4
f 131/3/4 132/3/4 133/3/4
f 132/3/4 128/3/4 134/3/4
f 133/3/4 132/3/4 134/3/4
f 135/7/4 136/7/4 137/7/4
f 137/7/4 136/7/4 138/7/4
f 138/7/4 136/7/4 139/7/4
f 139/7/4 136/7/4 140/7/4
f 140/7/4 136/7/4 141/7/4
f 142/7/4 143/7/4 144/7/4
f 144/7/4 143/7/4 145/7/4
f 145/7/4 143/7/4 146/7/4
f 146/7/4 143/7/4 147/7/4
f 147/7/4 143/7/4 148/7/4
f 149/5/4 150/5/4 151/5/4
f 151/5/4 150/5/4 152/5/4
f 155/5/5 154/5/5 153/5/5
f 156/5/5 154/5/5 155/5/5
f 161/7/5 158/7/5 157/7/5
f 162/7/5 158/7/5 161/7/5
f 163/7/5 160/7/5 159/7/5
f 164/7/5 160/7/5 163/7/5
f 169/7/5 166/7/5 165/7/5
f 170/7/5 166/7/5 169/7/5
f 171/7/5 168/7/5 167/7/5
f 172/7/5 168/7/5 171/7/5
f 173/5/6 174/5/6 177/5/6
f 177/5/6 174/5/6 178/5/6
f 175/5/6 176/5/6 179/5/6
f 179/5/6 176/5/6 180/5/6
f 180/5/6 176/5/6 181/5/6
f 173/5/6 177/5/6 182/5/6
f 177/6/6 178/6/6 182/6/6
f 178/5/6 174/5/6 183/5/6
f 182/6/6 178/6/6 183/6/6
f 183/5/6 174/5/6 184/5/6
f 179/5/6 180/5/6 185/5/6
f 181/5/6 176/5/6 186/5/6
f 186/5/6 176/5/6 187/5/6
f 183/5/6 184/5/6 188/5/6
f 182/5/6 183/5/6 188/5/6
f 188/5/6 184/5/6 189/5/6
f 185/5/6 180/5/6 190/5/6
f 180/6/6 181/6/6 190/6/6
f 181/5/6 186/5/6 191/5/6
f 190/6/6 181/6/6 191/6/6
f 189/5/6 184/5/6 192/5/6
f 185/5/6 190/5/6 193/5/6
f 190/5/6 191/5/6 193/5/6
f 191/5/6 186/5/6 194/5/6
f 193/5/6 191/5/6 194/5/6
f 186/6/6 187/6/6 194/6/6
f 187/5/6 176/5/6 195/5/6
f 194/6/6 187/6/6 195/6/6
f 188/6/6 189/6/6 196/6/6
f 182/5/6 188/5/6 196/5/6
f 189/5/6 192/5/6 197/5/6
f 196/6/6 189/6/6 197/6/6
f 193/5/6 194/5/6 198/5/6
f 194/5/6 195/5/6 198/5/6
f 198/5/6 195/5/6 199/5/6
f 195/5/6 176/5/6 200/5/6
f 199/5/6 195/5/6 200/5/6
f 200/5/6 176/5/6 201/5/6
f 197/5/6 192/5/6 202/5/6
f 196/5/6 197/5/6 202/5/6
f 193/5/6 198/5/6 203/5/6
f 182/5/6 196/5/6 204/5/6
f 196/5/6 202/5/6 204/5/6
f 204/5/6 202/5/6 205/5/6
f 198/6/6 199/6/6 206/6/6
f 203/5/6 198/5/6 206/5/6
f 199/5/6 200/5/6 207/5/6
f 206/6/6 199/6/6 207/6/6
f 200/6/6 201/6/6 208/6/6
f 207/5/6 200/5/6 208/5/6
f 208/6/6 201/6/6 209/6/6
f 205/5/6 202/5/6 210/5/6
f 206/5/6 207/5/6 211/5/6
f 203/5/6 206/5/6 211/5/6
f 208/5/6 209/5/6 211/5/6
f 207/5/6 208/5/6 211/5/6
f 204/6/6 205/6/6 212/6/6
f 182/5/6 204/5/6 212/5/6
f 205/5/6 210/5/6 213/5/6
f 212/6/6 205/6/6 213/6/6
f 211/5/6 209/5/6 214/5/6
f 214/5/6 209/5/6 215/5/6
f 213/5/6 210/5/6 216/5/6
f 212/5/6 213/5/6 216/5/6
f 216/5/6 210/5/6 217/5/6
f 217/5/6 210/5/6 218/5/6
f 211/5/6 214/5/6 219/5/6
f 212/5/6 216/5/6 220/5/6
f 216/6/6 217/6/6 220/6/6
f 217/5/6 218/5/6 221/5/6
f 220/6/6 217/6/6 221/6/6
f 221/5/6 218/5/6 222/5/6
f 219/5/6 214/5/6 223/5/6
f 214/6/6 215/6/6 224/6/6
f 223/5/6 214/5/6 224/5/6
f 215/5/6 209/5/6 225/5/6
f 224/6/6 215/6/6 225/6/6
f 182/5/6 212/5/6 226/5/6
f 212/5/6 220/5/6 226/5/6
f 221/5/6 222/5/6 226/5/6
f 220/5/6 221/5/6 226/5/6
f 226/5/6 222/5/6 227/5/6
f 223/5/6 224/5/6 228/5/6
f 224/5/6 225/5/6 228/5/6
f 228/5/6 225/5/6 229/5/6
f 225/5/6 209/5/6 230/5/6
f 229/5/6 225/5/6 230/5/6
f 230/5/6 209/5/6 231/5/6
f 227/5/6 222/5/6 232/5/6
f 223/5/6 228/5/6 233/5/6
f 226/6/6 227/6/6 234/6/6
f 182/5/6 226/5/6 234/5/6
f 227/5/6 232/5/6 235/5/6
f 234/6/6 227/6/6 235/6/6
f 228/6/6 229/6/6 236/6/6
f 233/5/6 228/5/6 236/5/6
f 229/5/6 230/5/6 237/5/6
f 236/6/6 229/6/6 237/6/6
f 230/6/6 231/6/6 238/6/6
f 237/5/6 230/5/6 238/5/6
f 231/5/6 209/5/6 239/5/6
f 238/6/6 231/6/6 239/6/6
f 235/5/6 232/5/6 240/5/6
f 234/5/6 235/5/6 240/5/6
f 240/5/6 232/5/6 241/5/6
f 241/5/6 232/5/6 242/5/6
f 237/5/6 238/5/6 243/5/6
f 238/5/6 239/5/6 243/5/6
f 233/5/6 236/5/6 243/5/6
f 236/5/6 237/5/6 243/5/6
f 243/5/6 239/5/6 244/5/6
f 239/5/6 209/5/6 245/5/6
f 244/5/6 239/5/6 245/5/6
f 182/5/6 234/5/6 246/5/6
f 234/5/6 240/5/6 246/5/6
f 246/5/6 240/5/6 247/5/6
f 243/5/6 244/5/6 248/5/6
f 248/5/6 244/5/6 249/5/6
f 247/5/6 240/5/6 250/5/6
f 240/6/6 241/6/6 250/6/6
f 241/5/6 242/5/6 251/5/6
f 250/6/6 241/6/6 251/6/6
f 243/5/6 248/5/6 252/5/6
f 249/5/6 244/5/6 253/5/6
f 244/6/6 245/6/6 253/6/6
f 245/5/6 209/5/6 254/5/6
f 253/6/6 245/6/6 254/6/6
f 173/5/6 182/5/6 255/5/6
f 182/5/6 246/5/6 255/5/6
f 246/6/6 247/6/6 256/6/6
f 255/5/6 246/5/6 256/5/6
f 247/5/6 250/5/6 257/5/6
f 256/6/6 247/6/6 257/6/6
f 250/5/6 251/5/6 257/5/6
f 251/5/6 242/5/6 258/5/6
f 257/5/6 251/5/6 258/5/6
f 252/5/6 248/5/6 259/5/6
f 248/6/6 249/6/6 260/6/6
f 259/5/6 248/5/6 260/5/6
f 249/5/6 253/5/6 261/5/6
f 260/6/6 249/6/6 261/6/6
f 253/5/6 254/5/6 261/5/6
f 254/5/6 209/5/6 262/5/6
f 261/5/6 254/5/6 262/5/6
f 263/2/6 264/2/6 265/2/6
f 265/2/6 264/2/6 266/2/6
f 263/2/6 265/2/6 267/2/6
f 265/1/6 266/1/6 268/1/6
f 267/2/6 265/2/6 268/2/6
f 268/1/6 266/1/6 269/1/6
f 270/2/6 271/2/6 273/2/6
f 271/1/6 272/1/6 274/1/6
f 273/2/6 271/2/6 274/2/6
f 274/1/6 272/1/6 275/1/6
f 273/1/6 274/1/6 276/1/6
f 274/2/6 275/2/6 277/2/6
f 276/1/6 274/1/6 277/1/6
f 277/2/6 275/2/6 278/2/6
f 276/2/6 277/2/6 279/2/6
f 277/1/6 278/1/6 280/1/6
f 279/2/6 277/2/6 280/2/6
f 280/1/6 278/1/6 281/1/6
f 279/1/6 280/1/6 282/1/6
f 280/2/6 281/2/6 283/2/6
f 282/1/6 280/1/6 283/1/6
f 283/2/6 281/2/6 284/2/6
f 282/2/6 283/2/6 285/2/6
f 283/1/6 284/1/6 286/1/6
f 285/2/6 283/2/6 286/2/6
f 286/1/6 284/1/6 287/1/6
f 288/2/6 289/2/6 291/2/6
f 289/1/6 290/1/6 291/1/6
f 291/1/6 290/1/6 292/1/6
f 288/2/6 291/2/6 293/2/6
f 291/2/6 292/2/6 293/2/6
f 293/2/6 292/2/6 294/2/6
f 295/5/6 296/5/6 297/5/6
f 297/5/6 296/5/6 298/5/6
f 298/5/6 296/5/6 299/5/6
f 299/5/6 296/5/6 300/5/6
f 295/5/6 297/5/6 301/5/6
f 297/4/6 298/4/6 301/4/6
f 298/5/6 299/5/6 302/5/6
f 301/4/6 298/4/6 302/4/6
f 299/4/6 300/4/6 303/4/6
f 302/5/6 299/5/6 303/5/6
f 300/5/6 296/5/6 304/5/6
f 303/4/6 300/4/6 304/4/6
f 302/5/6 303/5/6 305/5/6
f 301/5/6 302/5/6 305/5/6
f 303/5/6 304/5/6 305/5/6
f 305/5/6 304/5/6 306/5/6
f 301/5/6 305/5/6 307/5/6
f 305/4/6 306/4/6 307/4/6
f 306/5/6 304/5/6 308/5/6
f 307/4/6 306/4/6 308/4/6
f 301/5/6 307/5/6 309/5/6
f 307/5/6 308/5/6 309/5/6
f 309/5/6 308/5/6 310/5/6
f 308/5/6 304/5/6 311/5/6
f 310/5/6 308/5/6 311/5/6
f 311/5/6 304/5/6 312/5/6
f 310/5/6 311/5/6 313/5/6
f 313/5/6 311/5/6 314/5/6
f 309/4/6 310/4/6 315/4/6
f 301/5/6 309/5/6 315/5/6
f 310/5/6 313/5/6 316/5/6
f 315/4/6 310/4/6 316/4/6
f 314/5/6 311/5/6 317/5/6
f 311/4/6 312/4/6 317/4/6
f 312/5/6 304/5/6 318/5/6
f 317/4/6 312/4/6 318/4/6
f 316/5/6 313/5/6 319/5/6
f 313/4/6 314/4/6 319/4/6
f 315/5/6 316/5/6 319/5/6
f 317/5/6 318/5/6 320/5/6
f 319/4/6 314/4/6 320/4/6
f 314/5/6 317/5/6 320/5/6
f 295/5/6 301/5/6 321/5/6
f 315/5/6 319/5/6 321/5/6
f 319/5/6 320/5/6 321/5/6
f 301/5/6 315/5/6 321/5/6
f 304/5/6 296/5/6 322/5/6
f 321/5/6 320/5/6 322/5/6
f 320/5/6 318/5/6 322/5/6
f 318/5/6 304/5/6 322/5/6
f 321/3/6 322/3/6 323/3/6
f 323/3/6 322/3/6 324/3/6
f 325/7/6 326/7/6 327/7/6
f 327/7/6 326/7/6 328/7/6
f 329/7/6 330/7/6 331/7/6
f 331/7/6 330/7/6 332/7/6
f 333/3/6 334/3/6 335/3/6
f 335/3/6 334/3/6 336/3/6
f 335/5/6 336/5/6 337/5/6
f 337/5/6 336/5/6 338/5/6
f 335/5/6 337/5/6 339/5/6
f 339/5/6 337/5/6 340/5/6
f 338/5/6 336/5/6 341/5/6
f 341/5/6 336/5/6 342/5/6
f 340/5/6 337/5/6 343/5/6
f 337/4/6 338/4/6 343/4/6
f 338/5/6 341/5/6 344/5/6
f 343/4/6 338/4/6 344/4/6
f 335/5/6 339/5/6 345/5/6
f 339/4/6 340/4/6 345/4/6
f 343/5/6 344/5/6 346/5/6
f 345/4/6 340/4/6 346/4/6
f 340/5/6 343/5/6 346/5/6
f 341/4/6 342/4/6 347/4/6
f 346/5/6 344/5/6 347/5/6
f 344/5/6 341/5/6 347/5/6
f 342/5/6 336/5/6 348/5/6
f 347/4/6 342/4/6 348/4/6
f 346/5/6 347/5/6 349/5/6
f 345/5/6 346/5/6 349/5/6
f 347/5/6 348/5/6 349/5/6
f 349/5/6 348/5/6 350/5/6
f 345/5/6 349/5/6 351/5/6
f 349/4/6 350/4/6 351/4/6
f 350/5/6 348/5/6 352/5/6
f 351/4/6 350/4/6 352/4/6
f 335/5/6 345/5/6 353/5/6
f 345/5/6 351/5/6 353/5/6
f 351/5/6 352/5/6 353/5/6
f 353/5/6 352/5/6 354/5/6
f 352/5/6 348/5/6 355/5/6
f 354/5/6 352/5/6 355/5/6
f 348/5/6 336/5/6 356/5/6
f 355/5/6 348/5/6 356/5/6
f 353/4/6 354/4/6 357/4/6
f 335/5/6 353/5/6 357/5/6
f 354/5/6 355/5/6 358/5/6
f 357/4/6 354/4/6 358/4/6
f 355/4/6 356/4/6 359/4/6
f 358/5/6 355/5/6 359/5/6
f 356/5/6 336/5/6 360/5/6
f 359/4/6 356/4/6 360/4/6
f 335/5/6 357/5/6 361/5/6
f 358/5/6 359/5/6 361/5/6
f 359/5/6 360/5/6 361/5/6
f 357/5/6 358/5/6 361/5/6
f 360/5/6 336/5/6 362/5/6
f 361/5/6 360/5/6 362/5/6
