# MagicaVoxel @ ephtracy

# material
mtllib coin.mtl
usemtl palette

# normals
vn -1 0 0
vn 1 0 0
vn 0 0 1
vn 0 0 -1
vn 0 -1 0
vn 0 1 0

# texcoords
vt 0.0175781 0.5
vt 0.0683594 0.5

# verts
v -5 0 2
v -5 0 -3
v -5 1 2
v -5 1 -3
v -5 2 2
v -5 2 -3
v -4 0 3
v -4 0 2
v -4 0 -3
v -4 0 -4
v -4 1 3
v -4 1 2
v -4 1 -3
v -4 1 -4
v -4 2 3
v -4 2 2
v -4 2 -3
v -4 2 -4
v -3 0 4
v -3 0 3
v -3 0 -4
v -3 0 -5
v -3 1 4
v -3 1 3
v -3 1 -4
v -3 1 -5
v -3 2 4
v -3 2 3
v -3 2 -4
v -3 2 -5
v -2 0 5
v -2 0 4
v -2 0 -5
v -2 0 -6
v -2 1 5
v -2 1 4
v -2 1 1
v -2 1 -2
v -2 1 -5
v -2 1 -6
v -2 2 5
v -2 2 4
v -2 2 1
v -2 2 -2
v -2 2 -5
v -2 2 -6
v -1 1 2
v -1 1 1
v -1 1 -2
v -1 1 -3
v -1 2 2
v -1 2 1
v -1 2 -2
v -1 2 -3
v 2 1 4
v 2 1 3
v 2 1 -4
v 2 1 -5
v 2 2 4
v 2 2 3
v 2 2 -4
v 2 2 -5
v 3 1 3
v 3 1 2
v 3 1 -3
v 3 1 -4
v 3 2 3
v 3 2 2
v 3 2 -3
v 3 2 -4
v 4 1 2
v 4 1 -3
v 4 2 2
v 4 2 -3
v -4 1 2
v -4 1 -3
v -4 2 2
v -4 2 -3
v -3 1 3
v -3 1 2
v -3 1 -3
v -3 1 -4
v -3 2 3
v -3 2 2
v -3 2 -3
v -3 2 -4
v -2 1 4
v -2 1 3
v -2 1 -4
v -2 1 -5
v -2 2 4
v -2 2 3
v -2 2 -4
v -2 2 -5
v -1 1 1
v -1 1 -2
v -1 2 1
v -1 2 -2
v 1 1 2
v 1 1 1
v 1 1 -2
v 1 1 -3
v 1 2 2
v 1 2 1
v 1 2 -2
v 1 2 -3
v 2 0 5
v 2 0 4
v 2 0 -5
v 2 0 -6
v 2 1 5
v 2 1 4
v 2 1 -5
v 2 1 -6
v 2 2 5
v 2 2 4
v 2 2 -5
v 2 2 -6
v 3 0 4
v 3 0 3
v 3 0 -4
v 3 0 -5
v 3 1 4
v 3 1 3
v 3 1 -4
v 3 1 -5
v 3 2 4
v 3 2 3
v 3 2 -4
v 3 2 -5
v 4 0 3
v 4 0 2
v 4 0 -3
v 4 0 -4
v 4 1 3
v 4 1 2
v 4 1 -3
v 4 1 -4
v 4 2 3
v 4 2 2
v 4 2 -3
v 4 2 -4
v 5 0 2
v 5 0 -3
v 5 1 2
v 5 1 -3
v 5 2 2
v 5 2 -3
v -2 0 5
v -2 1 5
v -2 2 5
v 2 0 5
v 2 1 5
v 2 2 5
v -3 0 4
v -3 1 4
v -3 2 4
v -2 0 4
v -2 1 4
v -2 2 4
v 2 0 4
v 2 1 4
v 2 2 4
v 3 0 4
v 3 1 4
v 3 2 4
v -4 0 3
v -4 1 3
v -4 2 3
v -3 0 3
v -3 1 3
v -3 2 3
v 3 0 3
v 3 1 3
v 3 2 3
v 4 0 3
v 4 1 3
v 4 2 3
v -5 0 2
v -5 1 2
v -5 2 2
v -4 0 2
v -4 1 2
v -4 2 2
v -1 1 2
v -1 2 2
v 1 1 2
v 1 2 2
v 4 0 2
v 4 1 2
v 4 2 2
v 5 0 2
v 5 1 2
v 5 2 2
v -2 1 1
v -2 2 1
v -1 1 1
v -1 2 1
v -1 1 -2
v -1 2 -2
v 1 1 -2
v 1 2 -2
v -4 1 -3
v -4 2 -3
v -3 1 -3
v -3 2 -3
v 3 1 -3
v 3 2 -3
v 4 1 -3
v 4 2 -3
v -3 1 -4
v -3 2 -4
v -2 1 -4
v -2 2 -4
v 2 1 -4
v 2 2 -4
v 3 1 -4
v 3 2 -4
v -2 1 -5
v -2 2 -5
v 2 1 -5
v 2 2 -5
v -2 1 4
v -2 2 4
v 2 1 4
v 2 2 4
v -3 1 3
v -3 2 3
v -2 1 3
v -2 2 3
v 2 1 3
v 2 2 3
v 3 1 3
v 3 2 3
v -4 1 2
v -4 2 2
v -3 1 2
v -3 2 2
v 3 1 2
v 3 2 2
v 4 1 2
v 4 2 2
v -1 1 1
v -1 2 1
v 1 1 1
v 1 2 1
v -2 1 -2
v -2 2 -2
v -1 1 -2
v -1 2 -2
v -5 0 -3
v -5 1 -3
v -5 2 -3
v -4 0 -3
v -4 1 -3
v -4 2 -3
v -1 1 -3
v -1 2 -3
v 1 1 -3
v 1 2 -3
v 4 0 -3
v 4 1 -3
v 4 2 -3
v 5 0 -3
v 5 1 -3
v 5 2 -3
v -4 0 -4
v -4 1 -4
v -4 2 -4
v -3 0 -4
v -3 1 -4
v -3 2 -4
v 3 0 -4
v 3 1 -4
v 3 2 -4
v 4 0 -4
v 4 1 -4
v 4 2 -4
v -3 0 -5
v -3 1 -5
v -3 2 -5
v -2 0 -5
v -2 1 -5
v -2 2 -5
v 2 0 -5
v 2 1 -5
v 2 2 -5
v 3 0 -5
v 3 1 -5
v 3 2 -5
v -2 0 -6
v -2 1 -6
v -2 2 -6
v 2 0 -6
v 2 1 -6
v 2 2 -6
v -2 0 5
v 2 0 5
v -3 0 4
v -2 0 4
v 2 0 4
v 3 0 4
v -4 0 3
v -3 0 3
v 3 0 3
v 4 0 3
v -5 0 2
v -4 0 2
v 4 0 2
v 5 0 2
v -5 0 -3
v -4 0 -3
v 4 0 -3
v 5 0 -3
v -4 0 -4
v -3 0 -4
v 3 0 -4
v 4 0 -4
v -3 0 -5
v -2 0 -5
v 2 0 -5
v 3 0 -5
v -2 0 -6
v 2 0 -6
v -2 1 4
v 2 1 4
v -3 1 3
v -2 1 3
v 2 1 3
v 3 1 3
v -4 1 2
v -3 1 2
v -1 1 2
v 1 1 2
v 3 1 2
v 4 1 2
v -2 1 1
v -1 1 1
v 1 1 1
v -2 1 -2
v -1 1 -2
v 1 1 -2
v -4 1 -3
v -3 1 -3
v -1 1 -3
v 1 1 -3
v 3 1 -3
v 4 1 -3
v -3 1 -4
v -2 1 -4
v 2 1 -4
v 3 1 -4
v -2 1 -5
v 2 1 -5
v -2 2 5
v 2 2 5
v -3 2 4
v -2 2 4
v 2 2 4
v 3 2 4
v -4 2 3
v -3 2 3
v -2 2 3
v 2 2 3
v 3 2 3
v 4 2 3
v -5 2 2
v -4 2 2
v -3 2 2
v -1 2 2
v 1 2 2
v 3 2 2
v 4 2 2
v 5 2 2
v -2 2 1
v -1 2 1
v 1 2 1
v -2 2 -2
v -1 2 -2
v 1 2 -2
v -5 2 -3
v -4 2 -3
v -3 2 -3
v -1 2 -3
v 1 2 -3
v 3 2 -3
v 4 2 -3
v 5 2 -3
v -4 2 -4
v -3 2 -4
v -2 2 -4
v 2 2 -4
v 3 2 -4
v 4 2 -4
v -3 2 -5
v -2 2 -5
v 2 2 -5
v 3 2 -5
v -2 2 -6
v 2 2 -6

# faces
f 3/1/1 2/1/1 1/1/1
f 4/1/1 2/1/1 3/1/1
f 5/2/1 4/2/1 3/2/1
f 6/2/1 4/2/1 5/2/1
f 11/1/1 8/1/1 7/1/1
f 12/1/1 8/1/1 11/1/1
f 13/1/1 10/1/1 9/1/1
f 14/1/1 10/1/1 13/1/1
f 15/2/1 12/2/1 11/2/1
f 16/2/1 12/2/1 15/2/1
f 17/2/1 14/2/1 13/2/1
f 18/2/1 14/2/1 17/2/1
f 23/1/1 20/1/1 19/1/1
f 24/1/1 20/1/1 23/1/1
f 25/1/1 22/1/1 21/1/1
f 26/1/1 22/1/1 25/1/1
f 27/2/1 24/2/1 23/2/1
f 28/2/1 24/2/1 27/2/1
f 29/2/1 26/2/1 25/2/1
f 30/2/1 26/2/1 29/2/1
f 35/1/1 32/1/1 31/1/1
f 36/1/1 32/1/1 35/1/1
f 39/1/1 34/1/1 33/1/1
f 40/1/1 34/1/1 39/1/1
f 41/2/1 36/2/1 35/2/1
f 42/2/1 36/2/1 41/2/1
f 43/2/1 38/2/1 37/2/1
f 44/2/1 38/2/1 43/2/1
f 45/2/1 40/2/1 39/2/1
f 46/2/1 40/2/1 45/2/1
f 51/2/1 48/2/1 47/2/1
f 52/2/1 48/2/1 51/2/1
f 53/2/1 50/2/1 49/2/1
f 54/2/1 50/2/1 53/2/1
f 59/2/1 56/2/1 55/2/1
f 60/2/1 56/2/1 59/2/1
f 61/2/1 58/2/1 57/2/1
f 62/2/1 58/2/1 61/2/1
f 67/2/1 64/2/1 63/2/1
f 68/2/1 64/2/1 67/2/1
f 69/2/1 66/2/1 65/2/1
f 70/2/1 66/2/1 69/2/1
f 73/2/1 72/2/1 71/2/1
f 74/2/1 72/2/1 73/2/1
f 75/2/2 76/2/2 77/2/2
f 77/2/2 76/2/2 78/2/2
f 79/2/2 80/2/2 83/2/2
f 83/2/2 80/2/2 84/2/2
f 81/2/2 82/2/2 85/2/2
f 85/2/2 82/2/2 86/2/2
f 87/2/2 88/2/2 91/2/2
f 91/2/2 88/2/2 92/2/2
f 89/2/2 90/2/2 93/2/2
f 93/2/2 90/2/2 94/2/2
f 95/2/2 96/2/2 97/2/2
f 97/2/2 96/2/2 98/2/2
f 99/2/2 100/2/2 103/2/2
f 103/2/2 100/2/2 104/2/2
f 101/2/2 102/2/2 105/2/2
f 105/2/2 102/2/2 106/2/2
f 107/1/2 108/1/2 111/1/2
f 111/1/2 108/1/2 112/1/2
f 109/1/2 110/1/2 113/1/2
f 113/1/2 110/1/2 114/1/2
f 111/2/2 112/2/2 115/2/2
f 115/2/2 112/2/2 116/2/2
f 113/2/2 114/2/2 117/2/2
f 117/2/2 114/2/2 118/2/2
f 119/1/2 120/1/2 123/1/2
f 123/1/2 120/1/2 124/1/2
f 121/1/2 122/1/2 125/1/2
f 125/1/2 122/1/2 126/1/2
f 123/2/2 124/2/2 127/2/2
f 127/2/2 124/2/2 128/2/2
f 125/2/2 126/2/2 129/2/2
f 129/2/2 126/2/2 130/2/2
f 131/1/2 132/1/2 135/1/2
f 135/1/2 132/1/2 136/1/2
f 133/1/2 134/1/2 137/1/2
f 137/1/2 134/1/2 138/1/2
f 135/2/2 136/2/2 139/2/2
f 139/2/2 136/2/2 140/2/2
f 137/2/2 138/2/2 141/2/2
f 141/2/2 138/2/2 142/2/2
f 143/1/2 144/1/2 145/1/2
f 145/1/2 144/1/2 146/1/2
f 145/2/2 146/2/2 147/2/2
f 147/2/2 146/2/2 148/2/2
f 152/1/3 150/1/3 149/1/3
f 153/2/3 151/2/3 150/2/3
f 153/1/3 150/1/3 152/1/3
f 154/2/3 151/2/3 153/2/3
f 158/1/3 156/1/3 155/1/3
f 159/2/3 157/2/3 156/2/3
f 159/1/3 156/1/3 158/1/3
f 160/2/3 157/2/3 159/2/3
f 164/1/3 162/1/3 161/1/3
f 165/2/3 163/2/3 162/2/3
f 165/1/3 162/1/3 164/1/3
f 166/2/3 163/2/3 165/2/3
f 170/1/3 168/1/3 167/1/3
f 171/2/3 169/2/3 168/2/3
f 171/1/3 168/1/3 170/1/3
f 172/2/3 169/2/3 171/2/3
f 176/1/3 174/1/3 173/1/3
f 177/2/3 175/2/3 174/2/3
f 177/1/3 174/1/3 176/1/3
f 178/2/3 175/2/3 177/2/3
f 182/1/3 180/1/3 179/1/3
f 183/2/3 181/2/3 180/2/3
f 183/1/3 180/1/3 182/1/3
f 184/2/3 181/2/3 183/2/3
f 187/2/3 186/2/3 185/2/3
f 188/2/3 186/2/3 187/2/3
f 192/1/3 190/1/3 189/1/3
f 193/2/3 191/2/3 190/2/3
f 193/1/3 190/1/3 192/1/3
f 194/2/3 191/2/3 193/2/3
f 197/2/3 196/2/3 195/2/3
f 198/2/3 196/2/3 197/2/3
f 201/2/3 200/2/3 199/2/3
f 202/2/3 200/2/3 201/2/3
f 205/2/3 204/2/3 203/2/3
f 206/2/3 204/2/3 205/2/3
f 209/2/3 208/2/3 207/2/3
f 210/2/3 208/2/3 209/2/3
f 213/2/3 212/2/3 211/2/3
f 214/2/3 212/2/3 213/2/3
f 217/2/3 216/2/3 215/2/3
f 218/2/3 216/2/3 217/2/3
f 221/2/3 220/2/3 219/2/3
f 222/2/3 220/2/3 221/2/3
f 223/2/4 224/2/4 225/2/4
f 225/2/4 224/2/4 226/2/4
f 227/2/4 228/2/4 229/2/4
f 229/2/4 228/2/4 230/2/4
f 231/2/4 232/2/4 233/2/4
f 233/2/4 232/2/4 234/2/4
f 235/2/4 236/2/4 237/2/4
f 237/2/4 236/2/4 238/2/4
f 239/2/4 240/2/4 241/2/4
f 241/2/4 240/2/4 242/2/4
f 243/2/4 244/2/4 245/2/4
f 245/2/4 244/2/4 246/2/4
f 247/2/4 248/2/4 249/2/4
f 249/2/4 248/2/4 250/2/4
f 251/1/4 252/1/4 254/1/4
f 252/2/4 253/2/4 255/2/4
f 254/1/4 252/1/4 255/1/4
f 255/2/4 253/2/4 256/2/4
f 257/2/4 258/2/4 259/2/4
f 259/2/4 258/2/4 260/2/4
f 261/1/4 262/1/4 264/1/4
f 262/2/4 263/2/4 265/2/4
f 264/1/4 262/1/4 265/1/4
f 265/2/4 263/2/4 266/2/4
f 267/1/4 268/1/4 270/1/4
f 268/2/4 269/2/4 271/2/4
f 270/1/4 268/1/4 271/1/4
f 271/2/4 269/2/4 272/2/4
f 273/1/4 274/1/4 276/1/4
f 274/2/4 275/2/4 277/2/4
f 276/1/4 274/1/4 277/1/4
f 277/2/4 275/2/4 278/2/4
f 279/1/4 280/1/4 282/1/4
f 280/2/4 281/2/4 283/2/4
f 282/1/4 280/1/4 283/1/4
f 283/2/4 281/2/4 284/2/4
f 285/1/4 286/1/4 288/1/4
f 286/2/4 287/2/4 289/2/4
f 288/1/4 286/1/4 289/1/4
f 289/2/4 287/2/4 290/2/4
f 291/1/4 292/1/4 294/1/4
f 292/2/4 293/2/4 295/2/4
f 294/1/4 292/1/4 295/1/4
f 295/2/4 293/2/4 296/2/4
f 300/1/5 298/1/5 297/1/5
f 301/1/5 298/1/5 300/1/5
f 304/1/5 300/1/5 299/1/5
f 304/1/5 302/1/5 301/1/5
f 304/1/5 301/1/5 300/1/5
f 305/1/5 302/1/5 304/1/5
f 308/1/5 304/1/5 303/1/5
f 308/1/5 306/1/5 305/1/5
f 308/1/5 305/1/5 304/1/5
f 309/1/5 306/1/5 308/1/5
f 311/1/5 308/1/5 307/1/5
f 311/1/5 310/1/5 309/1/5
f 311/1/5 309/1/5 308/1/5
f 312/1/5 310/1/5 311/1/5
f 313/1/5 310/1/5 312/1/5
f 314/1/5 310/1/5 313/1/5
f 315/1/5 313/1/5 312/1/5
f 316/1/5 313/1/5 315/1/5
f 317/1/5 313/1/5 316/1/5
f 318/1/5 313/1/5 317/1/5
f 319/1/5 317/1/5 316/1/5
f 320/1/5 317/1/5 319/1/5
f 321/1/5 317/1/5 320/1/5
f 322/1/5 317/1/5 321/1/5
f 323/1/5 321/1/5 320/1/5
f 324/1/5 321/1/5 323/1/5
f 325/1/6 326/1/6 328/1/6
f 328/1/6 326/1/6 329/1/6
f 327/1/6 328/1/6 332/1/6
f 329/1/6 330/1/6 332/1/6
f 328/1/6 329/1/6 332/1/6
f 332/1/6 330/1/6 333/1/6
f 333/1/6 330/1/6 334/1/6
f 334/1/6 330/1/6 335/1/6
f 331/1/6 332/1/6 337/1/6
f 332/1/6 333/1/6 337/1/6
f 337/1/6 333/1/6 338/1/6
f 335/1/6 336/1/6 339/1/6
f 334/1/6 335/1/6 339/1/6
f 331/1/6 337/1/6 340/1/6
f 338/1/6 339/1/6 341/1/6
f 339/1/6 336/1/6 342/1/6
f 341/1/6 339/1/6 342/1/6
f 331/1/6 340/1/6 343/1/6
f 340/1/6 341/1/6 343/1/6
f 343/1/6 341/1/6 344/1/6
f 344/1/6 341/1/6 345/1/6
f 342/1/6 336/1/6 346/1/6
f 346/1/6 336/1/6 347/1/6
f 347/1/6 336/1/6 348/1/6
f 344/1/6 345/1/6 349/1/6
f 346/1/6 347/1/6 349/1/6
f 345/1/6 346/1/6 349/1/6
f 349/1/6 347/1/6 350/1/6
f 350/1/6 347/1/6 351/1/6
f 351/1/6 347/1/6 352/1/6
f 350/1/6 351/1/6 353/1/6
f 353/1/6 351/1/6 354/1/6
f 355/2/6 356/2/6 358/2/6
f 358/2/6 356/2/6 359/2/6
f 357/2/6 358/2/6 362/2/6
f 362/2/6 358/2/6 363/2/6
f 359/2/6 360/2/6 364/2/6
f 364/2/6 360/2/6 365/2/6
f 361/2/6 362/2/6 368/2/6
f 368/2/6 362/2/6 369/2/6
f 365/2/6 366/2/6 372/2/6
f 372/2/6 366/2/6 373/2/6
f 370/2/6 371/2/6 376/2/6
f 376/2/6 371/2/6 377/2/6
f 375/2/6 376/2/6 378/2/6
f 378/2/6 376/2/6 379/2/6
f 367/2/6 368/2/6 381/2/6
f 381/2/6 368/2/6 382/2/6
f 379/2/6 380/2/6 384/2/6
f 384/2/6 380/2/6 385/2/6
f 373/2/6 374/2/6 387/2/6
f 387/2/6 374/2/6 388/2/6
f 382/2/6 383/2/6 389/2/6
f 389/2/6 383/2/6 390/2/6
f 386/2/6 387/2/6 393/2/6
f 393/2/6 387/2/6 394/2/6
f 390/2/6 391/2/6 395/2/6
f 395/2/6 391/2/6 396/2/6
f 392/2/6 393/2/6 397/2/6
f 397/2/6 393/2/6 398/2/6
f 396/2/6 397/2/6 399/2/6
f 399/2/6 397/2/6 400/2/6
